<?xml version="1.0" encoding="utf-8"?>
<svg xmlns="http://www.w3.org/2000/svg" xmlns:xlink="http://www.w3.org/1999/xlink" version="1.1" x="0px"
     y="0px" viewBox="0 0 3723.7 2000" style="enable-background:new 0 0 3723.7 2000;" xml:space="preserve"
     aria-hidden="true" width="3723px" height="2000px">
	<defs>
        <linearGradient class="cerosgradient" id="CerosGradient_id88306c24b"
                        gradientUnits="userSpaceOnUse" x1="50%" y1="100%" x2="50%" y2="0%">
            <stop offset="0%" stop-color="#d1d1d1"/>
            <stop
                    offset="100%" stop-color="#d1d1d1"/>
        </linearGradient>
        <linearGradient/></defs>
    <style type="text/css">
        .st0-6077b8b7839fc {
    fill: #050a11;
}

.st1-6077b8b7839fc {
    fill: #08101c;
}

.st2-6077b8b7839fc {
    fill: #0b1622;
}

.st3-6077b8b7839fc {
    fill: #1c3456;
}

.st4-6077b8b7839fc {
    fill: #122640;
}

.st5-6077b8b7839fc {
    fill: #A8CFE3;
}

.st6-6077b8b7839fc {
    fill: #152941;
}

.st7-6077b8b7839fc {
    fill: #0c192b;
}

.st8-6077b8b7839fc {
    fill: #162b47;
}

.st9-6077b8b7839fc {
    fill: #0d1b2d;
}

.st10-6077b8b7839fc {
    fill: #FFFFFF;
}

.st11-6077b8b7839fc {
    fill: #A2C6E8;
}

.st12-6077b8b7839fc {
    fill: #7A8B99;
}
}
</style>
    <rect x="0.1" y="0" class="st1-6077b8b7839fc" width="3723.7" height="2000"/>
    <path class="st0-6077b8b7839fc"
          d="M0.1,693.6C116.2,764.5,245.9,797.5,346.6,823c368.6,93.5,435-32.5,752.4,25  c462.7,83.8,826.7,443.4,895.4,513.5c300.2,306.8,229.8,471.3,447.9,603.4c21.9,13.2,44.7,25,68.3,35.2h655.4  c264.1-79.7,467.6-222.2,439.1-284.7c-30.4-66.4-305.9-4.1-596.9-209.8c-146.5-103.6-122.1-151.4-253.1-239.7  c-277.6-187.2-462-22.6-770-181.7c-266-137.4-251.7-323.8-548.7-439.4c-158.8-61.8-208.2-26.1-321-98.1  c-195-124.5-149.1-296-301.2-446.3C776.3,62.9,728.5,29.2,674.3,0H0.1V693.6z"/>
    <path class="st2-6077b8b7839fc"
          d="M0.1,2000h1954.3c74.9-288.1-112.2-651-278.4-843.5c-91.7-106.2-261.8-258.7-336-216  c-108.7,62.6,112.2,472.8-12,576c-124.6,103.4-474.7-203.2-1032-510c-48.9-27-157.3-86.6-296-156.2L0.1,2000z"/>
    <path class="st2-6077b8b7839fc"
          d="M1494.8,435.2c44,0.5,55.3-193.4,111.6-195.2c63.4-2.1,63,244.2,211.3,481.3  c170.9,273.2,446.8,386.2,576.2,439.2c264.4,108.3,541.1,127.5,557.8,79.7c11.4-32.7-107.5-70.4-205.3-224  c-41.6-65.3-110.9-174.2-76.6-259c47.8-118.1,240.4-49.1,360.9-181.6c133.6-147,67.8-420.6-10.6-567.5c-1.4-2.6-2.9-5.3-4.4-8  h-192.4c-1,72-4.1,145.8-45.2,166.7c-52,26.4-133-47.9-253.2-166.7H1400.5C1417.8,236,1450.3,434.7,1494.8,435.2z"/>
<!--    <path class="st3-6077b8b7839fc"-->
<!--          d="M2270.2,258.9c28,0,50.8-22.7,50.8-50.8s-22.7-50.8-50.8-50.8c-28,0-50.8,22.7-50.8,50.8  S2242.1,258.9,2270.2,258.9L2270.2,258.9z M2270.2,161.9c25.5,0,46.2,20.7,46.2,46.2s-20.7,46.2-46.2,46.2  c-25.5,0-46.2-20.7-46.2-46.2c0,0,0,0,0,0C2224,182.6,2244.7,161.9,2270.2,161.9L2270.2,161.9z"/>-->
<!--    <path class="st4-6077b8b7839fc"-->
<!--          d="M2270.2,268.3c33.2,0,60.2-27,60.2-60.2s-27-60.2-60.2-60.2c-33.2,0-60.2,27-60.2,60.2c0,0,0,0,0,0  C2210,241.4,2236.9,268.3,2270.2,268.3z M2270.2,152.7c30.6,0,55.5,24.8,55.5,55.4s-24.8,55.5-55.4,55.5s-55.5-24.8-55.5-55.4  c0,0,0,0,0,0C2214.7,177.5,2239.5,152.7,2270.2,152.7L2270.2,152.7z"/>-->
<!--    <path class="st3-6077b8b7839fc"-->
<!--          d="M1574.3,1633.9c26.1,0,47.3-21.2,47.3-47.3s-21.2-47.3-47.3-47.3c-26.1,0-47.3,21.2-47.3,47.3  S1548.2,1633.9,1574.3,1633.9L1574.3,1633.9z M1574.3,1543.6c23.7,0,43,19.3,43,43s-19.3,43-43,43s-43-19.3-43-43l0,0  C1531.3,1562.8,1550.5,1543.6,1574.3,1543.6L1574.3,1543.6z"/>-->
<!--    <path class="st4-6077b8b7839fc"-->
<!--          d="M1574.3,1642.7c31,0,56.1-25,56.1-56c0-31-25-56.1-56-56.1c-31,0-56.1,25-56.1,56c0,0,0,0,0,0.1  C1518.3,1617.5,1543.3,1642.6,1574.3,1642.7z M1574.3,1534.9c28.5,0,51.7,23.1,51.7,51.7s-23.1,51.7-51.7,51.7  c-28.5,0-51.7-23.1-51.7-51.7l0,0C1522.6,1558.1,1545.7,1534.9,1574.3,1534.9z"/>-->
    <circle class="st5-6077b8b7839fc" cx="3094.3" cy="144" r="30.9"/>
<!--    <path class="st6-6077b8b7839fc"-->
<!--          d="M2591.4,724.4c50.8,0,91.9-41.2,91.9-91.9s-41.2-91.9-91.9-91.9c-50.8,0-91.9,41.2-91.9,91.9c0,0,0,0,0,0  C2499.5,683.2,2540.7,724.4,2591.4,724.4z M2591.4,548.8c46.2,0,83.7,37.5,83.6,83.7c0,46.2-37.5,83.7-83.7,83.6  c-46.2,0-83.6-37.5-83.6-83.7C2507.7,586.2,2545.2,548.8,2591.4,548.8C2591.4,548.8,2591.4,548.8,2591.4,548.8L2591.4,548.8z"/>-->
<!--    <path class="st7-6077b8b7839fc"-->
<!--          d="M2591.4,741.5c60.2,0,109-48.8,109-109s-48.8-109-109-109s-109,48.8-109,109l0,0  C2482.4,692.7,2531.3,741.5,2591.4,741.5z M2591.4,532c55.5,0,100.5,45,100.5,100.5S2647,733,2591.4,733s-100.5-45-100.5-100.5l0,0  C2490.9,576.9,2535.9,532,2591.4,532C2591.4,532,2591.4,532,2591.4,532L2591.4,532z"/>-->
<!--    <path class="st8-6077b8b7839fc"-->
<!--          d="M1174,1648.5c51.1,0,92.6-41.5,92.6-92.6s-41.5-92.6-92.6-92.6c-51.1,0-92.6,41.5-92.6,92.6  C1081.4,1607,1122.9,1648.5,1174,1648.5L1174,1648.5z M1174,1471.6c46.5,0,84.3,37.7,84.3,84.3c0,46.5-37.7,84.3-84.3,84.3  c-46.5,0-84.3-37.7-84.3-84.3C1089.7,1509.3,1127.5,1471.6,1174,1471.6C1174,1471.6,1174,1471.6,1174,1471.6z"/>-->
<!--    <path class="st9-6077b8b7839fc"-->
<!--          d="M1174,1665.7c60.7,0,109.8-49.2,109.8-109.8c0-60.7-49.2-109.8-109.8-109.8c-60.7,0-109.8,49.2-109.8,109.8  C1064.2,1616.5,1113.3,1665.7,1174,1665.7C1174,1665.7,1174,1665.7,1174,1665.7z M1174,1454.6c55.9,0,101.2,45.3,101.2,101.2  c0,55.9-45.3,101.2-101.2,101.2c-55.9,0-101.2-45.3-101.2-101.2C1072.8,1500,1118.1,1454.6,1174,1454.6  C1174,1454.6,1174,1454.6,1174,1454.6z"/>-->
    <path class="st10-6077b8b7839fc"
          d="M119.1,1243.6l-2,25.9l-2-25.9c-0.5-7.1-6.2-12.7-13.3-13.3l-25.9-2l25.9-2c7.1-0.5,12.7-6.2,13.3-13.3l2-25.9  l2,25.9c0.5,7.1,6.2,12.7,13.3,13.3l25.9,2l-25.9,2C125.3,1230.9,119.6,1236.5,119.1,1243.6z"/>
    <path class="st10-6077b8b7839fc"
          d="M2972.8,1827.7l-1.2,15.7l-1.2-15.7c-0.3-4.3-3.7-7.7-8-8l-15.7-1.2l15.7-1.2c4.3-0.3,7.7-3.7,8-8l1.2-15.7  l1.2,15.7c0.3,4.3,3.7,7.7,8,8l15.6,1.2l-15.6,1.2C2976.5,1820,2973.1,1823.4,2972.8,1827.7z"/>
    <path class="st10-6077b8b7839fc"
          d="M1491.7,164.3l-1.2,15.6l-1.2-15.6c-0.3-4.3-3.7-7.7-8-8l-15.6-1.2l15.6-1.2c4.3-0.3,7.7-3.7,8-8l1.2-15.6  l1.2,15.6c0.3,4.3,3.7,7.7,8,8l15.6,1.2l-15.6,1.2C1495.5,156.6,1492,160,1491.7,164.3z"/>
    <path class="st10-6077b8b7839fc"
          d="M751.1,1899.9l-2,26.6l-2-26.6c-0.6-7.3-6.3-13.1-13.6-13.6l-26.6-2l26.6-2c7.3-0.6,13.1-6.4,13.6-13.6l2-26.6  l2,26.6c0.6,7.3,6.3,13.1,13.6,13.6l26.6,2l-26.6,2C757.4,1886.9,751.6,1892.7,751.1,1899.9z"/>
    <path class="st10-6077b8b7839fc"
          d="M641.1,816.4l-2.8,36.5l-2.8-36.5c-0.8-10-8.7-18-18.7-18.7l-36.5-2.8l36.5-2.8c10-0.8,18-8.7,18.7-18.7  l2.8-36.5l2.8,36.5c0.8,10,8.7,18,18.7,18.7l36.5,2.8l-36.5,2.8C649.8,798.4,641.8,806.3,641.1,816.4z"/>
    <path class="st10-6077b8b7839fc"
          d="M3373.6,714.6l-4.4,57.7l-4.4-57.7c-1.2-15.8-13.8-28.4-29.6-29.6l-57.7-4.4l57.7-4.4  c15.8-1.2,28.4-13.8,29.6-29.6l4.4-57.7l4.4,57.7c1.2,15.8,13.8,28.4,29.6,29.6l57.7,4.4l-57.7,4.4  C3387.4,686.2,3374.9,698.8,3373.6,714.6z"/>
    <path class="st11-6077b8b7839fc"
          d="M2070.3,251.5l-1.5,19.9l-1.5-19.9c-0.4-5.5-4.8-9.8-10.2-10.2l-19.9-1.5l19.9-1.5c5.5-0.4,9.8-4.8,10.2-10.2  l1.5-19.9l1.5,19.9c0.4,5.5,4.8,9.8,10.2,10.2l19.9,1.5l-19.9,1.5C2075,241.7,2070.7,246.1,2070.3,251.5z"/>
    <path class="st11-6077b8b7839fc"
          d="M2070.3,1674.2l-1.5,19.9l-1.5-19.9c-0.4-5.5-4.8-9.8-10.2-10.2l-19.9-1.5l19.9-1.5c5.5-0.4,9.8-4.8,10.2-10.2  l1.5-19.9l1.5,19.9c0.4,5.5,4.8,9.8,10.2,10.2l19.9,1.5l-19.9,1.5C2075,1664.5,2070.7,1668.8,2070.3,1674.2z"/>
    <path class="st11-6077b8b7839fc"
          d="M858.6,1252.4l-1.5,19.9l-1.5-19.9c-0.4-5.5-4.8-9.8-10.2-10.2l-19.9-1.5l19.9-1.5c5.5-0.4,9.8-4.8,10.2-10.2  l1.5-19.9l1.5,19.9c0.4,5.5,4.8,9.8,10.2,10.2l19.9,1.5l-19.9,1.5C863.4,1242.6,859,1247,858.6,1252.4z"/>
    <path class="st11-6077b8b7839fc"
          d="M3014.9,1354l-1.5,19.9l-1.5-19.9c-0.4-5.5-4.8-9.8-10.2-10.2l-19.9-1.5l19.9-1.5c5.5-0.4,9.8-4.8,10.2-10.2  l1.5-19.9l1.5,19.9c0.4,5.5,4.8,9.8,10.2,10.2l19.9,1.5l-19.9,1.5C3019.6,1344.2,3015.3,1348.5,3014.9,1354z"/>
    <path class="st10-6077b8b7839fc"
          d="M1624.2,468l-3.5,46.1l-3.5-46.1c-1-12.6-11-22.7-23.6-23.6l-46.1-3.5l46.1-3.5c12.6-1,22.7-11,23.6-23.6  l3.5-46.1l3.5,46.1c1,12.6,11,22.7,23.6,23.6l46.1,3.5l-46.1,3.5C1635.2,445.4,1625.1,455.4,1624.2,468z"/>
    <path class="st10-6077b8b7839fc"
          d="M2566.1,1809c17.1,1.3,30.6,14.9,31.9,31.9l4.7,62.2l4.7-62.2c1.3-17.1,14.9-30.6,31.9-31.9l62.2-4.7  l-62.2-4.7c-17.1-1.3-30.6-14.8-31.9-31.9l-4.7-62.2l-4.7,62.2c-1.3,17.1-14.9,30.6-31.9,31.9l-62.2,4.7L2566.1,1809z   M2591.9,1800.4c3.2-1.3,5.7-3.8,6.9-6.9l3.9-10l3.9,10c1.3,3.2,3.8,5.7,6.9,6.9l10,3.9l-10,3.9c-3.2,1.3-5.7,3.8-6.9,6.9l-3.9,10  l-3.9-10c-1.3-3.2-3.8-5.7-6.9-6.9l-10-3.9L2591.9,1800.4z"/>
    <path class="st4-6077b8b7839fc"
          d="M241.2,687.2C186.2,611,127.4,559.6,109.7,572.3s12.6,84.8,67.5,161s113.8,127.6,131.5,114.9  S296.1,763.4,241.2,687.2z M185.5,727.4c-50.7-70.3-79.7-135.9-64.8-146.7s68,37.5,118.7,107.8s79.7,136,64.8,146.7  S236.1,797.6,185.5,727.4z"/>
    <path class="st3-6077b8b7839fc"
          d="M192.7,722.1c17.6,24.5,36.2,47,53.5,65.1c4.6-2.2,8.9-4.8,13.1-7.7c38.3-27.6,47-81,19.5-119.3  c-27.6-38.3-81-47-119.3-19.5c-4.2,3-8.1,6.4-11.6,10.1C161.2,675.6,176.2,699.4,192.7,722.1z"/>
    <path class="st3-6077b8b7839fc"
          d="M170.1,738.5c-14.2-19.8-27.4-40.4-39.5-61.6c-18.4,43.5,2,93.6,45.4,112c12.6,5.3,26.3,7.6,40,6.5  C199.7,777.3,184.4,758.2,170.1,738.5z"/>
    <circle class="st10-6077b8b7839fc" cx="1107" cy="429.1" r="9.8"/>
    <circle class="st10-6077b8b7839fc" cx="216" cy="310.8" r="9.8"/>
    <path class="st5-6077b8b7839fc"
          d="M2420.7,227.2c-11.4,0-20.7-9.2-20.7-20.7s9.2-20.7,20.7-20.7c11.4,0,20.7,9.2,20.7,20.7  C2441.4,217.9,2432.1,227.2,2420.7,227.2C2420.7,227.2,2420.7,227.2,2420.7,227.2z"/>
    <path class="st10-6077b8b7839fc"
          d="M3197,104.8c0-3.6,2.9-6.6,6.6-6.6c3.6,0,6.6,2.9,6.6,6.6s-2.9,6.6-6.6,6.6c0,0,0,0,0,0  C3199.9,111.3,3197,108.4,3197,104.8C3197,104.8,3197,104.8,3197,104.8z"/>
    <path class="st10-6077b8b7839fc"
          d="M1225.1,513.7c0-3.6,2.9-6.6,6.6-6.6c3.6,0,6.6,2.9,6.6,6.6c0,3.6-2.9,6.6-6.6,6.6c0,0,0,0,0,0  C1228,520.3,1225.1,517.3,1225.1,513.7C1225.1,513.7,1225.1,513.7,1225.1,513.7z"/>
    <path class="st10-6077b8b7839fc"
          d="M1813.2,1921.5c0-3.6,2.9-6.6,6.6-6.6s6.6,2.9,6.6,6.6c0,3.6-2.9,6.6-6.6,6.6c0,0,0,0,0,0  C1816.1,1928,1813.2,1925.1,1813.2,1921.5z"/>
    <circle class="st10-6077b8b7839fc" cx="2739.7" cy="1650.9" r="6.6"/>
    <path class="st10-6077b8b7839fc"
          d="M110.6,613.3c0-3.6,2.9-6.6,6.6-6.6c3.6,0,6.6,2.9,6.6,6.6c0,3.6-2.9,6.6-6.6,6.6c0,0,0,0,0,0  C113.5,619.9,110.6,616.9,110.6,613.3L110.6,613.3z"/>
    <path class="st10-6077b8b7839fc"
          d="M2246.7,1286c0-3.6,2.9-6.6,6.6-6.6c3.6,0,6.6,2.9,6.6,6.6s-2.9,6.6-6.6,6.6l0,0  C2249.7,1292.5,2246.7,1289.6,2246.7,1286z"/>
    <path class="st10-6077b8b7839fc"
          d="M462.8,513.7c0-3.6,2.9-6.6,6.6-6.6c3.6,0,6.6,2.9,6.6,6.6c0,3.6-2.9,6.6-6.6,6.6c0,0,0,0,0,0  C465.7,520.3,462.8,517.3,462.8,513.7C462.8,513.7,462.8,513.7,462.8,513.7z"/>
    <path class="st10-6077b8b7839fc"
          d="M511.8,1319.2c0-3.6,2.9-6.6,6.6-6.6s6.6,2.9,6.6,6.6c0,3.6-2.9,6.6-6.6,6.6c0,0,0,0,0,0  C514.8,1325.8,511.8,1322.8,511.8,1319.2z"/>
    <circle class="st10-6077b8b7839fc" cx="2238" cy="1475.5" r="6.6"/>
    <path class="st10-6077b8b7839fc"
          d="M296.7,942.1c0-3.6,2.9-6.6,6.6-6.6c3.6,0,6.6,2.9,6.6,6.6c0,3.6-2.9,6.6-6.6,6.6c0,0,0,0,0,0  C299.6,948.7,296.7,945.8,296.7,942.1C296.7,942.1,296.7,942.1,296.7,942.1z"/>
    <circle class="st10-6077b8b7839fc" cx="234.2" cy="1429.5" r="6.6"/>
    <path class="st10-6077b8b7839fc"
          d="M3486,1815.6c0-3.6,2.9-6.6,6.6-6.6c3.6,0,6.6,2.9,6.6,6.6c0,3.6-2.9,6.6-6.6,6.6  C3489,1822.2,3486,1819.3,3486,1815.6z"/>
    <path class="st10-6077b8b7839fc"
          d="M1323.3,1240.7c0-5.4,4.4-9.8,9.8-9.8c5.4,0,9.8,4.4,9.8,9.8c0,5.4-4.4,9.8-9.8,9.8  S1323.3,1246.1,1323.3,1240.7L1323.3,1240.7z"/>
    <path class="st10-6077b8b7839fc"
          d="M1882.5,587c0-5.4,4.4-9.8,9.8-9.8c5.4,0,9.8,4.4,9.8,9.8c0,5.4-4.4,9.8-9.8,9.8  C1886.9,596.7,1882.5,592.4,1882.5,587C1882.5,587,1882.5,587,1882.5,587z"/>
    <path class="st10-6077b8b7839fc"
          d="M2715.5,1928c0-5.4,4.4-9.8,9.8-9.8c5.4,0,9.8,4.4,9.8,9.8c0,5.4-4.4,9.8-9.8,9.8c0,0,0,0,0,0  C2719.9,1937.8,2715.5,1933.4,2715.5,1928L2715.5,1928z"/>
    <path class="st10-6077b8b7839fc"
          d="M1827,728.2c0-5.4,4.4-9.8,9.8-9.7c5.4,0,9.8,4.4,9.7,9.8c0,5.4-4.4,9.8-9.8,9.7  C1831.3,738,1827,733.6,1827,728.2C1827,728.2,1827,728.2,1827,728.2z"/>
    <path class="st10-6077b8b7839fc"
          d="M847.3,183.5c0-5.4,4.4-9.8,9.8-9.8s9.8,4.4,9.8,9.8c0,5.4-4.4,9.8-9.8,9.8S847.3,188.9,847.3,183.5  C847.3,183.5,847.3,183.5,847.3,183.5z"/>
    <circle class="st10-6077b8b7839fc" cx="2311.2" cy="1206.9" r="4"/>
    <path class="st10-6077b8b7839fc"
          d="M2320.6,1289.3c0-2.7,2.2-4.9,4.9-4.9s4.9,2.2,4.9,4.9c0,2.7-2.2,4.9-4.9,4.9  C2322.8,1294.2,2320.6,1292,2320.6,1289.3C2320.6,1289.3,2320.6,1289.3,2320.6,1289.3z"/>
    <path class="st10-6077b8b7839fc"
          d="M2368.2,1257.4c0-2.1,1.7-3.9,3.9-3.9s3.9,1.7,3.9,3.8s-1.7,3.9-3.8,3.9c0,0,0,0,0,0  C2370,1261.2,2368.2,1259.5,2368.2,1257.4z"/>
    <path class="st10-6077b8b7839fc"
          d="M2490.6,1290.4c0-2,1.6-3.7,3.7-3.7s3.7,1.6,3.7,3.7c0,2-1.6,3.7-3.7,3.7S2490.6,1292.5,2490.6,1290.4  C2490.6,1290.4,2490.6,1290.4,2490.6,1290.4z"/>
    <path class="st10-6077b8b7839fc"
          d="M2506.6,1419.3c0-2.1,1.7-3.8,3.8-3.8c2.1,0,3.8,1.7,3.8,3.8c0,2.1-1.7,3.8-3.8,3.8c0,0,0,0,0,0  C2508.4,1423.2,2506.6,1421.5,2506.6,1419.3z"/>
    <path class="st10-6077b8b7839fc"
          d="M2635.6,1306.5c0-2.5,2-4.5,4.5-4.5c2.5,0,4.5,2,4.5,4.5c0,2.5-2,4.5-4.5,4.5l0,0  C2637.6,1310.9,2635.6,1308.9,2635.6,1306.5z"/>
    <path class="st10-6077b8b7839fc"
          d="M2612.4,1400.4c0-2.8,2.2-5,5-5s5,2.2,5,5s-2.2,5-5,5S2612.4,1403.1,2612.4,1400.4z"/>
    <path class="st10-6077b8b7839fc"
          d="M2711.6,1433.8c0-2,1.6-3.7,3.7-3.7s3.7,1.6,3.7,3.7c0,2-1.6,3.7-3.7,3.7c0,0,0,0,0,0  C2713.2,1437.4,2711.6,1435.8,2711.6,1433.8L2711.6,1433.8z"/>
    <circle class="st10-6077b8b7839fc" cx="2714.8" cy="1587.2" r="4.1"/>
    <path class="st10-6077b8b7839fc"
          d="M2885.8,1498.9c0-2.8,2.2-5,5-5c2.8,0,5,2.2,5,5s-2.2,5-5,5C2888,1503.9,2885.8,1501.6,2885.8,1498.9z"/>
    <path class="st10-6077b8b7839fc" d="M2942.2,1545c0-2.2,1.8-4,4-4s4,1.8,4,4s-1.8,4-4,4S2942.2,1547.2,2942.2,1545z"/>
    <path class="st10-6077b8b7839fc"
          d="M2982.4,1521.2c0-2.4,1.9-4.3,4.3-4.3c2.4,0,4.3,1.9,4.3,4.3c0,2.4-1.9,4.3-4.3,4.3l0,0  C2984.4,1525.5,2982.4,1523.6,2982.4,1521.2z"/>
    <path class="st10-6077b8b7839fc"
          d="M2958.6,1608.3c0-2.2,1.8-3.9,3.9-3.9s3.9,1.8,3.9,3.9c0,2.2-1.8,3.9-3.9,3.9c0,0,0,0,0,0  C2960.4,1612.3,2958.6,1610.5,2958.6,1608.3z"/>
    <path class="st10-6077b8b7839fc"
          d="M2940.7,1680.9c0-3,2.4-5.4,5.4-5.4c3,0,5.4,2.4,5.4,5.4c0,3-2.4,5.4-5.4,5.4S2940.7,1683.9,2940.7,1680.9  L2940.7,1680.9z"/>
    <path class="st10-6077b8b7839fc"
          d="M3086.2,1647.4c0-2.2,1.8-4,4-3.9c2.2,0,4,1.8,3.9,4c0,2.2-1.8,3.9-4,3.9  C3088,1651.4,3086.2,1649.6,3086.2,1647.4z"/>
    <path class="st10-6077b8b7839fc"
          d="M3103.1,1605.5c0-2.6,2.1-4.8,4.8-4.8s4.8,2.1,4.8,4.8s-2.1,4.8-4.8,4.8S3103.1,1608.1,3103.1,1605.5  L3103.1,1605.5z"/>
    <path class="st10-6077b8b7839fc"
          d="M3156.3,1582.7c0-2.8,2.3-5.2,5.1-5.2c2.8,0,5.2,2.3,5.2,5.2s-2.3,5.2-5.2,5.2  C3158.6,1587.8,3156.3,1585.5,3156.3,1582.7z"/>
    <ellipse transform="matrix(0.1111 -0.9938 0.9938 0.1111 1286.0306 4636.1772)" class="st10-6077b8b7839fc" cx="3234.7"
             cy="1599.2" rx="4" ry="3.9"/>
    <path class="st10-6077b8b7839fc"
          d="M3221.7,1637.1c0-2.6,2.1-4.7,4.7-4.7c2.6,0,4.7,2.1,4.7,4.7c0,2.6-2.1,4.7-4.7,4.7c0,0,0,0,0,0  C3223.8,1641.8,3221.7,1639.7,3221.7,1637.1z"/>
    <path class="st10-6077b8b7839fc"
          d="M3251.7,1622.5c0-2.3,1.9-4.2,4.2-4.2c2.3,0,4.2,1.9,4.2,4.2s-1.9,4.2-4.2,4.2c0,0,0,0,0,0  C3253.6,1626.7,3251.7,1624.8,3251.7,1622.5z"/>
    <path class="st10-6077b8b7839fc"
          d="M3380.9,1580.9c0-2.9,2.3-5.2,5.2-5.2s5.2,2.3,5.2,5.2c0,2.9-2.3,5.2-5.2,5.2l0,0  C3383.3,1586.1,3380.9,1583.8,3380.9,1580.9z"/>
    <circle class="st10-6077b8b7839fc" cx="3395.3" cy="1640" r="4.4"/>
    <path class="st10-6077b8b7839fc"
          d="M3433.6,1673.1c0-3,2.4-5.4,5.4-5.4c3,0,5.4,2.4,5.4,5.4c0,3-2.4,5.4-5.4,5.4c0,0,0,0,0,0  C3436,1678.5,3433.6,1676.1,3433.6,1673.1z"/>
    <path class="st10-6077b8b7839fc"
          d="M3495.7,1804.3c0-2.9,2.3-5.2,5.2-5.2s5.2,2.3,5.2,5.2c0,2.9-2.3,5.2-5.2,5.2c0,0,0,0,0,0  C3498,1809.5,3495.7,1807.2,3495.7,1804.3z"/>
    <circle class="st10-6077b8b7839fc" cx="48.4" cy="107.3" r="4.8"/>
    <path class="st10-6077b8b7839fc"
          d="M166.7,95.2c0-3,2.4-5.4,5.4-5.4c3,0,5.4,2.4,5.4,5.4c0,3-2.4,5.4-5.4,5.4c0,0,0,0,0,0  C169.1,100.6,166.7,98.2,166.7,95.2z"/>
    <circle class="st10-6077b8b7839fc" cx="1797" cy="1591.2" r="4.7"/>
    <circle class="st10-6077b8b7839fc" cx="18.1" cy="311.8" r="4.8"/>
    <path class="st10-6077b8b7839fc"
          d="M205.4,270.6c0-2.1,1.7-3.9,3.9-3.9c2.1,0,3.9,1.7,3.9,3.9c0,2.1-1.7,3.9-3.9,3.9  C207.1,274.5,205.4,272.7,205.4,270.6C205.4,270.6,205.4,270.6,205.4,270.6z"/>
    <circle class="st10-6077b8b7839fc" cx="107.1" cy="423.7" r="5.4"/>
    <circle class="st10-6077b8b7839fc" cx="221" cy="433.3" r="4.1"/>
    <path class="st10-6077b8b7839fc"
          d="M367.4,351.5c0-2.6,2.1-4.6,4.6-4.6c2.6,0,4.7,2.1,4.7,4.6c0,2.6-2.1,4.6-4.7,4.6l0,0  C369.4,356.1,367.4,354.1,367.4,351.5z"/>
    <circle class="st10-6077b8b7839fc" cx="412.7" cy="470.6" r="4.6"/>
    <circle class="st10-6077b8b7839fc" cx="494.1" cy="469.9" r="4.7"/>
    <circle class="st10-6077b8b7839fc" cx="538.7" cy="461" r="5.2"/>
    <path class="st10-6077b8b7839fc"
          d="M586.4,558.2c0-2.7,2.2-4.9,4.9-4.9c2.7,0,4.9,2.2,4.9,4.9s-2.2,4.9-4.9,4.9c0,0,0,0,0,0  C588.6,563.1,586.4,560.9,586.4,558.2C586.4,558.2,586.4,558.2,586.4,558.2z"/>
    <path class="st10-6077b8b7839fc"
          d="M572.3,689.5c0-2,1.7-3.7,3.7-3.7c2,0,3.7,1.7,3.7,3.7s-1.7,3.7-3.7,3.7l0,0  C574,693.2,572.3,691.6,572.3,689.5z"/>
    <path class="st10-6077b8b7839fc"
          d="M643,764c0-2.4,1.9-4.4,4.4-4.4c2.4,0,4.3,1.9,4.3,4.3s-1.9,4.3-4.3,4.4S643,766.4,643,764L643,764z"/>
    <path class="st10-6077b8b7839fc"
          d="M695.2,730.7c0-2.1,1.7-3.9,3.8-3.9c2.1,0,3.9,1.7,3.9,3.8c0,2.1-1.7,3.9-3.8,3.9c0,0,0,0,0,0  C696.9,734.6,695.2,732.9,695.2,730.7C695.2,730.7,695.2,730.7,695.2,730.7z"/>
    <path class="st10-6077b8b7839fc"
          d="M776.1,605c0-2.6,2.1-4.6,4.7-4.6s4.6,2.1,4.6,4.7c0,2.6-2.1,4.6-4.7,4.6C778.2,609.6,776.1,607.5,776.1,605  C776.1,605,776.1,605,776.1,605z"/>
    <path class="st10-6077b8b7839fc"
          d="M840.7,729.6c0-3,2.4-5.5,5.4-5.5c3,0,5.4,2.4,5.4,5.5s-2.4,5.5-5.4,5.5l0,0  C843.1,735,840.7,732.6,840.7,729.6z"/>
    <circle class="st10-6077b8b7839fc" cx="958.1" cy="795.1" r="4.1"/>
    <path class="st10-6077b8b7839fc"
          d="M1001.4,697c0-3,2.4-5.4,5.4-5.4c3,0,5.4,2.4,5.4,5.4c0,3-2.4,5.4-5.4,5.4l0,0  C1003.8,702.4,1001.4,700,1001.4,697z"/>
    <circle class="st10-6077b8b7839fc" cx="1018.6" cy="755.4" r="5"/>
    <circle class="st10-6077b8b7839fc" cx="1092.8" cy="675.2" r="4.2"/>
    <path class="st10-6077b8b7839fc"
          d="M1074.5,741.8c0-3,2.4-5.4,5.4-5.4s5.4,2.4,5.4,5.4c0,3-2.4,5.4-5.4,5.4l0,0  C1076.9,747.3,1074.5,744.8,1074.5,741.8z"/>
    <path class="st10-6077b8b7839fc"
          d="M1117.1,641.3c0-2.8,2.3-5.1,5.1-5.1c2.8,0,5.1,2.3,5.1,5.1c0,2.8-2.3,5.1-5.1,5.1c0,0,0,0,0,0  C1119.4,646.4,1117.1,644.1,1117.1,641.3C1117.1,641.3,1117.1,641.3,1117.1,641.3z"/>
    <path class="st10-6077b8b7839fc"
          d="M1152.3,761.8c0-2.1,1.7-3.8,3.8-3.8c2.1,0,3.8,1.7,3.8,3.8c0,2.1-1.7,3.8-3.8,3.8c0,0,0,0,0,0  C1154,765.6,1152.3,763.9,1152.3,761.8C1152.3,761.8,1152.3,761.8,1152.3,761.8z"/>
    <path class="st10-6077b8b7839fc"
          d="M1232,891.6c0-2.6,2.1-4.7,4.7-4.7c2.6,0,4.7,2.1,4.7,4.7c0,2.6-2.1,4.7-4.7,4.7c0,0,0,0,0,0  C1234.1,896.2,1232,894.2,1232,891.6z"/>
    <circle class="st10-6077b8b7839fc" cx="1262.1" cy="772.8" r="4.5"/>
    <path class="st10-6077b8b7839fc"
          d="M1275.6,833c0-2.8,2.3-5.1,5.1-5.1c2.8,0,5.1,2.3,5.1,5.1c0,2.8-2.3,5.1-5.1,5.1c0,0,0,0,0,0  C1277.9,838.1,1275.6,835.8,1275.6,833C1275.6,833,1275.6,833,1275.6,833z"/>
    <path class="st10-6077b8b7839fc"
          d="M1342.1,905.7c0-2.7,2.2-4.9,4.9-4.9c2.7,0,4.9,2.2,4.9,4.9c0,2.7-2.2,4.9-4.9,4.9c0,0,0,0,0,0  C1344.3,910.5,1342.1,908.4,1342.1,905.7z"/>
    <path class="st10-6077b8b7839fc"
          d="M1361.5,740.5c0-2.3,1.9-4.1,4.1-4.1c2.3,0,4.1,1.9,4.1,4.1c0,2.3-1.9,4.1-4.1,4.1l0,0  C1363.4,744.6,1361.5,742.8,1361.5,740.5z"/>
    <path class="st10-6077b8b7839fc"
          d="M1449.1,806.3c0-2.9,2.4-5.3,5.3-5.3s5.3,2.4,5.3,5.3c0,2.9-2.4,5.3-5.3,5.3S1449.1,809.2,1449.1,806.3  L1449.1,806.3z"/>
    <path class="st10-6077b8b7839fc"
          d="M1543.2,883.7c0-2.4,1.9-4.3,4.3-4.3c2.4,0,4.3,1.9,4.3,4.3c0,2.4-1.9,4.3-4.3,4.3c0,0,0,0,0,0  C1545.1,888,1543.2,886.1,1543.2,883.7z"/>
    <circle class="st10-6077b8b7839fc" cx="1574.3" cy="779.5" r="5.3"/>
    <path class="st10-6077b8b7839fc"
          d="M1610,891.2c0-2.3,1.8-4.1,4.1-4.1c2.3,0,4.1,1.8,4.1,4.1c0,2.3-1.8,4.1-4.1,4.1S1610,893.5,1610,891.2  C1610,891.2,1610,891.2,1610,891.2z"/>
    <path class="st10-6077b8b7839fc"
          d="M1610.3,849.6c0-2.6,2.1-4.7,4.7-4.7c2.6,0,4.7,2.1,4.7,4.7c0,2.6-2.1,4.7-4.7,4.7l0,0  C1612.4,854.3,1610.3,852.2,1610.3,849.6z"/>
    <circle class="st10-6077b8b7839fc" cx="1726.2" cy="758.3" r="4.6"/>
    <path class="st10-6077b8b7839fc"
          d="M1770.9,698.3c0-2.2,1.7-3.9,3.9-3.9s3.9,1.7,3.9,3.9c0,2.2-1.7,3.9-3.9,3.9c0,0,0,0,0,0  C1772.7,702.2,1770.9,700.5,1770.9,698.3C1770.9,698.3,1770.9,698.3,1770.9,698.3z"/>
    <path class="st10-6077b8b7839fc"
          d="M103.7,1025.2c0-2.5,2.1-4.6,4.6-4.6c2.5,0,4.6,2.1,4.6,4.6c0,2.5-2.1,4.6-4.6,4.6c0,0,0,0,0,0  C105.8,1029.8,103.7,1027.7,103.7,1025.2C103.7,1025.2,103.7,1025.2,103.7,1025.2z"/>
    <path class="st10-6077b8b7839fc"
          d="M199,1088.4c0-2.7,2.1-4.8,4.8-4.8s4.8,2.1,4.8,4.8c0,2.7-2.1,4.8-4.8,4.8S199,1091.1,199,1088.4L199,1088.4z"/>
    <path class="st10-6077b8b7839fc"
          d="M238.7,1096.4c0-2.4,2-4.4,4.4-4.4c2.4,0,4.4,2,4.4,4.4c0,2.4-2,4.4-4.4,4.4l0,0  C240.7,1100.8,238.7,1098.8,238.7,1096.4z"/>
    <circle class="st10-6077b8b7839fc" cx="292.4" cy="1081.3" r="3.8"/>
    <path class="st10-6077b8b7839fc"
          d="M428.6,1224.4c0-2.4,2-4.4,4.4-4.4c2.4,0,4.4,2,4.4,4.4c0,2.4-2,4.4-4.4,4.4l0,0  C430.5,1228.8,428.6,1226.9,428.6,1224.4z"/>
    <path class="st10-6077b8b7839fc"
          d="M549.5,1182c0-3,2.4-5.4,5.4-5.4c3,0,5.4,2.4,5.4,5.4c0,3-2.4,5.4-5.4,5.4c0,0,0,0,0,0  C551.9,1187.4,549.5,1185,549.5,1182z"/>
    <path class="st10-6077b8b7839fc"
          d="M574.2,1096.3c0-2.8,2.3-5.1,5.1-5.1c2.8,0,5.1,2.3,5.1,5.1c0,2.8-2.3,5.1-5.1,5.1S574.2,1099.1,574.2,1096.3  L574.2,1096.3z"/>
    <circle class="st10-6077b8b7839fc" cx="679.8" cy="1126.1" r="4.9"/>
    <path class="st10-6077b8b7839fc"
          d="M681.6,1104.2c0-2.6,2.1-4.8,4.8-4.8c2.6,0,4.8,2.1,4.8,4.8c0,2.6-2.1,4.8-4.8,4.8S681.6,1106.8,681.6,1104.2  L681.6,1104.2z"/>
    <circle class="st10-6077b8b7839fc" cx="749.1" cy="964.6" r="5.1"/>
    <circle class="st10-6077b8b7839fc" cx="795.3" cy="1035.7" r="5.3"/>
    <path class="st10-6077b8b7839fc"
          d="M839.3,964.6c0-3,2.4-5.4,5.4-5.3s5.4,2.4,5.3,5.4c0,2.9-2.4,5.3-5.3,5.3C841.8,970.1,839.3,967.7,839.3,964.6  C839.3,964.7,839.3,964.7,839.3,964.6z"/>
    <path class="st10-6077b8b7839fc"
          d="M888.9,949.9c0-2.5,2.1-4.6,4.6-4.6c2.5,0,4.6,2.1,4.6,4.6c0,2.5-2.1,4.6-4.6,4.6  C891,954.5,888.9,952.4,888.9,949.9z"/>
    <path class="st10-6077b8b7839fc"
          d="M974.8,1140.7c0-3,2.4-5.4,5.4-5.4c3,0,5.4,2.4,5.4,5.4c0,3-2.4,5.4-5.4,5.4c0,0,0,0,0,0  C977.3,1146.1,974.8,1143.7,974.8,1140.7C974.8,1140.7,974.8,1140.7,974.8,1140.7z"/>
    <path class="st10-6077b8b7839fc"
          d="M1053,1136.8c0-2.4,1.9-4.3,4.3-4.3c2.4,0,4.3,1.9,4.3,4.3c0,2.4-1.9,4.3-4.3,4.3c0,0,0,0,0,0  C1055,1141,1053,1139.1,1053,1136.8C1053,1136.8,1053,1136.8,1053,1136.8z"/>
    <circle class="st5-6077b8b7839fc" cx="1955.9" cy="1471.8" r="3.6"/>
    <path class="st5-6077b8b7839fc"
          d="M2363.5,1062.9c-4.8,0-8.7-3.9-8.7-8.7s3.9-8.7,8.7-8.7c4.8,0,8.7,3.9,8.7,8.7  C2372.2,1059,2368.3,1062.9,2363.5,1062.9C2363.5,1062.9,2363.5,1062.9,2363.5,1062.9z"/>
    <path class="st5-6077b8b7839fc"
          d="M2575.1,1955.1c-4.8,0-8.7-3.9-8.7-8.7s3.9-8.7,8.7-8.7s8.7,3.9,8.7,8.7S2579.9,1955.1,2575.1,1955.1  C2575.1,1955.1,2575.1,1955.1,2575.1,1955.1z"/>
    <path class="st5-6077b8b7839fc"
          d="M2566.4,1251.7c-4.8,0-8.7-3.9-8.8-8.7c0-4.8,3.9-8.7,8.7-8.8c4.8,0,8.7,3.9,8.8,8.7c0,0,0,0,0,0  C2575.1,1247.8,2571.2,1251.7,2566.4,1251.7z"/>
    <circle class="st5-6077b8b7839fc" cx="2615.8" cy="1663.5" r="6.4"/>
    <path class="st5-6077b8b7839fc"
          d="M2988.5,1275.9c-4,0-7.3-3.2-7.3-7.3c0-4,3.2-7.3,7.3-7.3c4,0,7.3,3.2,7.3,7.3c0,0,0,0,0,0  C2995.8,1272.6,2992.5,1275.9,2988.5,1275.9z"/>
    <path class="st5-6077b8b7839fc"
          d="M3064.4,1640.4c-4.3,0-7.9-3.5-7.9-7.9s3.5-7.9,7.9-7.9c4.3,0,7.9,3.5,7.9,7.9l0,0  C3072.2,1636.9,3068.7,1640.4,3064.4,1640.4z"/>
    <path class="st5-6077b8b7839fc" d="M3195,1845.1c-2.8,0-5-2.2-5-5s2.2-5,5-5s5,2.2,5,5S3197.7,1845.1,3195,1845.1z"/>
    <path class="st5-6077b8b7839fc"
          d="M3484.1,1573.2c-4.8,0-8.7-3.9-8.7-8.7c0-4.8,3.9-8.7,8.7-8.7c4.8,0,8.7,3.9,8.7,8.7c0,0,0,0,0,0  C3492.8,1569.3,3488.9,1573.2,3484.1,1573.2z"/>
    <circle class="st5-6077b8b7839fc" cx="3529.6" cy="1981.1" r="7.8"/>
    <path class="st5-6077b8b7839fc"
          d="M165.7,330.7c-3.6,0-6.6-3-6.6-6.6s3-6.6,6.6-6.6c3.6,0,6.6,3,6.6,6.6C172.3,327.7,169.3,330.7,165.7,330.7  C165.7,330.7,165.7,330.7,165.7,330.7z"/>
    <ellipse transform="matrix(0.9993 -3.837634e-02 3.837634e-02 0.9993 -9.4957 11.9678)" class="st5-6077b8b7839fc"
             cx="307" cy="253.3" rx="5.2" ry="5.2"/>
    <path class="st5-6077b8b7839fc"
          d="M341.3,588.6c-3.3,0-5.9-2.7-5.9-5.9c0-3.3,2.7-5.9,5.9-5.9c3.3,0,5.9,2.7,5.9,5.9  C347.2,586,344.6,588.6,341.3,588.6C341.3,588.6,341.3,588.6,341.3,588.6z"/>
    <path class="st5-6077b8b7839fc"
          d="M703.2,27.4c-4.3,0-7.8-3.5-7.8-7.8c0-4.3,3.5-7.8,7.8-7.8c4.3,0,7.8,3.5,7.8,7.8  C711,23.9,707.5,27.4,703.2,27.4L703.2,27.4z"/>
    <path class="st5-6077b8b7839fc"
          d="M717.6,464.4c-2.3,0-4.2-1.9-4.2-4.2s1.9-4.2,4.2-4.2c2.3,0,4.2,1.9,4.2,4.2c0,0,0,0,0,0  C721.8,462.5,719.9,464.4,717.6,464.4z"/>
    <circle class="st5-6077b8b7839fc" cx="1010.3" cy="480.8" r="3.3"/>
    <path class="st5-6077b8b7839fc"
          d="M1089.5,713.5c-4.1,0-7.5-3.3-7.5-7.5s3.3-7.5,7.5-7.5c4.1,0,7.5,3.3,7.5,7.5v0  C1097,710.2,1093.6,713.5,1089.5,713.5z"/>
    <path class="st5-6077b8b7839fc"
          d="M1301,780c-5.4,0-9.8-4.4-9.8-9.8s4.4-9.8,9.8-9.8c5.4,0,9.8,4.4,9.8,9.8c0,0,0,0,0,0  C1310.8,775.7,1306.4,780,1301,780C1301,780,1301,780,1301,780z"/>
    <circle class="st5-6077b8b7839fc" cx="1510.6" cy="941" r="8.1"/>
    <path class="st5-6077b8b7839fc"
          d="M1797.1,939.5c-5.8,0-10.4-4.7-10.4-10.4c0-5.8,4.7-10.4,10.4-10.4s10.4,4.7,10.4,10.4c0,0,0,0,0,0  C1807.5,934.8,1802.9,939.5,1797.1,939.5L1797.1,939.5z"/>
    <path class="st5-6077b8b7839fc"
          d="M515.4,565.1c-3.5,0-6.3-2.8-6.3-6.3s2.8-6.3,6.3-6.3s6.3,2.8,6.3,6.3C521.8,562.3,519,565.1,515.4,565.1  C515.5,565.1,515.4,565.1,515.4,565.1z"/>
    <path class="st5-6077b8b7839fc"
          d="M659.4,109.8c-4.1,0-7.4-3.3-7.4-7.4c0-4.1,3.3-7.4,7.4-7.4c4.1,0,7.4,3.3,7.4,7.4c0,0,0,0,0,0  C666.8,106.5,663.5,109.8,659.4,109.8z"/>
    <path class="st5-6077b8b7839fc"
          d="M867.8,116.8c-1.5,0-2.8-1.2-2.8-2.8c0-1.5,1.2-2.8,2.8-2.8c1.5,0,2.8,1.2,2.8,2.8c0,0,0,0,0,0  C870.6,115.5,869.4,116.8,867.8,116.8z"/>
    <ellipse transform="matrix(1.010087e-03 -1 1 1.010087e-03 1107.1924 1143.8513)" class="st5-6077b8b7839fc"
             cx="1126.1" cy="17.8" rx="4.9" ry="4.9"/>
    <path class="st5-6077b8b7839fc"
          d="M1309.9,144c-3,0-5.5-2.4-5.5-5.5s2.4-5.5,5.5-5.5s5.5,2.4,5.5,5.5c0,0,0,0,0,0  C1315.4,141.5,1313,144,1309.9,144z"/>
    <path class="st5-6077b8b7839fc"
          d="M1561,270.7c-5.6,0-10.2-4.5-10.2-10.1s4.5-10.2,10.1-10.2c5.6,0,10.2,4.5,10.2,10.1c0,0,0,0,0,0  C1571.1,266.2,1566.6,270.7,1561,270.7z"/>
    <path class="st5-6077b8b7839fc"
          d="M1734,504.8c-4.6,0-8.3-3.7-8.3-8.3s3.7-8.3,8.3-8.3c4.6,0,8.3,3.7,8.3,8.3  C1742.3,501.1,1738.6,504.8,1734,504.8C1734,504.8,1734,504.8,1734,504.8z"/>
    <path class="st5-6077b8b7839fc"
          d="M1890.4,84c-1.8,0-3.3-1.5-3.3-3.3s1.5-3.3,3.3-3.3s3.3,1.5,3.3,3.3c0,0,0,0,0,0  C1893.7,82.5,1892.2,84,1890.4,84L1890.4,84z"/>
    <path class="st5-6077b8b7839fc"
          d="M1673.4,350.8c-2.6,0-4.6-2.1-4.6-4.7s2.1-4.6,4.6-4.6c2.6,0,4.7,2.1,4.7,4.6S1676,350.8,1673.4,350.8  L1673.4,350.8z"/>
    <circle class="st5-6077b8b7839fc" cx="1613.8" cy="400.2" r="5.9"/>
    <circle class="st5-6077b8b7839fc" cx="1545.3" cy="648.6" r="3.4"/>
    <circle class="st5-6077b8b7839fc" cx="2668" cy="1095.9" r="3.2"/>
    <ellipse transform="matrix(0.1614 -0.9869 0.9869 0.1614 1453.4287 3839.4231)" class="st5-6077b8b7839fc" cx="2986"
             cy="1064.5" rx="9.2" ry="9.2"/>
    <path class="st5-6077b8b7839fc"
          d="M1767.7,1026.7c-5.7,0-10.4-4.6-10.4-10.3c0-5.7,4.6-10.4,10.3-10.4c5.7,0,10.4,4.6,10.4,10.3c0,0,0,0,0,0  C1778.1,1022.1,1773.4,1026.7,1767.7,1026.7z"/>
    <path class="st5-6077b8b7839fc"
          d="M2503.6,958.5c-2.1,0-3.9-1.7-3.9-3.9s1.7-3.9,3.9-3.9c2.1,0,3.9,1.7,3.9,3.9S2505.8,958.5,2503.6,958.5  L2503.6,958.5z"/>
    <circle class="st5-6077b8b7839fc" cx="3307.4" cy="60.7" r="7.2"/>
    <path class="st5-6077b8b7839fc"
          d="M3075,1239.2c-3.4,0-6.2-2.8-6.2-6.2c0-3.4,2.8-6.2,6.2-6.2s6.2,2.8,6.2,6.2c0,0,0,0,0,0  C3081.2,1236.4,3078.4,1239.2,3075,1239.2L3075,1239.2z"/>
    <circle class="st5-6077b8b7839fc" cx="2231.5" cy="728.2" r="10.4"/>
    <path class="st5-6077b8b7839fc"
          d="M2776.9,750.4c-2.3,0-4.1-1.8-4.1-4.1c0-2.3,1.8-4.1,4.1-4.1c2.3,0,4.1,1.8,4.1,4.1c0,0,0,0,0,0  C2781,748.5,2779.2,750.4,2776.9,750.4C2776.9,750.4,2776.9,750.4,2776.9,750.4z"/>
    <circle class="st5-6077b8b7839fc" cx="3662.9" cy="60.7" r="4.4"/>
    <path class="st5-6077b8b7839fc"
          d="M2440.2,401.8c-5.4,0-9.9-4.4-9.9-9.8s4.4-9.9,9.9-9.9c5.4,0,9.9,4.4,9.9,9.9c0,0,0,0,0,0  C2450.1,397.4,2445.7,401.8,2440.2,401.8C2440.2,401.8,2440.2,401.8,2440.2,401.8z"/>
    <path class="st5-6077b8b7839fc"
          d="M2542.3,176c-5.4,0-9.8-4.4-9.8-9.8s4.4-9.8,9.8-9.8s9.8,4.4,9.8,9.8C2552.1,171.7,2547.7,176,2542.3,176  C2542.4,176,2542.3,176,2542.3,176z"/>
    <path class="st5-6077b8b7839fc"
          d="M3561.2,220.6c-5.8,0-10.6-4.7-10.6-10.6s4.7-10.6,10.6-10.6s10.6,4.7,10.6,10.6S3567.1,220.6,3561.2,220.6  L3561.2,220.6z"/>
    <path class="st5-6077b8b7839fc"
          d="M3211.7,1817.1c-5.7,0-10.3-4.6-10.3-10.3c0-5.7,4.6-10.3,10.3-10.3c5.7,0,10.3,4.6,10.3,10.3l0,0  C3222,1812.5,3217.4,1817.1,3211.7,1817.1C3211.7,1817.1,3211.7,1817.1,3211.7,1817.1z"/>
    <ellipse transform="matrix(0.9254 -0.379 0.379 0.9254 -318.2578 1337.6503)" class="st5-6077b8b7839fc" cx="3238.9"
             cy="1477.3" rx="4.6" ry="4.6"/>
    <path class="st5-6077b8b7839fc"
          d="M2292.9,1926c-2.5,0-4.6-2.1-4.6-4.6s2.1-4.6,4.6-4.6c2.5,0,4.6,2.1,4.6,4.6c0,0,0,0,0,0  C2297.5,1924,2295.4,1926,2292.9,1926C2292.9,1926,2292.9,1926,2292.9,1926z"/>
    <path class="st5-6077b8b7839fc"
          d="M2884.2,1433.8c-2.4,0-4.4-2-4.4-4.4c0-2.4,2-4.4,4.4-4.4c2.4,0,4.4,2,4.4,4.4c0,0,0,0,0,0  C2888.6,1431.8,2886.6,1433.8,2884.2,1433.8L2884.2,1433.8z"/>
    <path class="st5-6077b8b7839fc"
          d="M2725.3,1570.4c-5.6,0-10.2-4.6-10.2-10.2c0-5.6,4.6-10.2,10.2-10.2c5.6,0,10.2,4.6,10.2,10.2c0,0,0,0,0,0  C2735.5,1565.8,2731,1570.4,2725.3,1570.4C2725.3,1570.4,2725.3,1570.4,2725.3,1570.4z"/>
    <path class="st5-6077b8b7839fc"
          d="M2448.3,1776.8c-5,0-9-4-9-9s4-9,9-9s9,4,9,9S2453.2,1776.8,2448.3,1776.8L2448.3,1776.8z"/>
    <path class="st5-6077b8b7839fc"
          d="M2243.1,1770.5c-2.8,0-5.1-2.3-5.1-5.1s2.3-5.1,5.1-5.1s5.1,2.3,5.1,5.1v0  C2248.2,1768.2,2245.9,1770.5,2243.1,1770.5z"/>
    <path class="st5-6077b8b7839fc"
          d="M3620.4,1094.2c-5.8,0-10.5-4.7-10.5-10.6c0-5.8,4.7-10.5,10.5-10.5c5.8,0,10.6,4.7,10.6,10.5  C3630.9,1089.4,3626.2,1094.2,3620.4,1094.2C3620.4,1094.2,3620.4,1094.2,3620.4,1094.2z"/>
    <circle class="st5-6077b8b7839fc" cx="3006.3" cy="710.5" r="10.5"/>
    <path class="st5-6077b8b7839fc"
          d="M2002.1,1680.4c-2,0-3.7-1.6-3.7-3.6c0-2,1.6-3.7,3.6-3.7c2,0,3.7,1.6,3.7,3.6c0,0,0,0,0,0  C2005.8,1678.8,2004.2,1680.4,2002.1,1680.4z"/>
    <circle class="st5-6077b8b7839fc" cx="2157" cy="1385.1" r="8"/>
    <path class="st5-6077b8b7839fc"
          d="M54.7,1043.5c-5.4,0-9.7-4.4-9.7-9.7s4.4-9.7,9.7-9.7s9.7,4.4,9.7,9.7l0,0C64.4,1039.2,60.1,1043.5,54.7,1043.5  z"/>
    <path class="st5-6077b8b7839fc"
          d="M103.8,701.7c-1.9,0-3.5-1.6-3.5-3.5s1.6-3.5,3.5-3.5s3.5,1.6,3.5,3.5l0,0C107.3,700.1,105.7,701.7,103.8,701.7  z"/>
    <path class="st5-6077b8b7839fc"
          d="M343.2,846.8c-3.7,0-6.7-3-6.7-6.7s3-6.7,6.7-6.7c3.7,0,6.7,3,6.7,6.7l0,0C349.9,843.8,346.9,846.8,343.2,846.8  z"/>
    <circle class="st5-6077b8b7839fc" cx="459.3" cy="641.2" r="3.3"/>
    <path class="st5-6077b8b7839fc"
          d="M577.6,921.2c-3.8,0-6.8-3-6.8-6.8c0-3.8,3-6.8,6.8-6.8c3.8,0,6.8,3,6.8,6.8  C584.4,918.2,581.4,921.2,577.6,921.2z"/>
    <ellipse transform="matrix(0.9247 -0.3806 0.3806 0.9247 -317.5697 349.2329)" class="st5-6077b8b7839fc" cx="724.3"
             cy="977.6" rx="8.4" ry="8.4"/>
    <path class="st5-6077b8b7839fc"
          d="M1023.3,1221.4c-5.1,0-9.2-4.1-9.2-9.2c0-5.1,4.1-9.2,9.2-9.2c5.1,0,9.2,4.1,9.2,9.2v0  C1032.5,1217.2,1028.4,1221.4,1023.3,1221.4C1023.3,1221.4,1023.3,1221.4,1023.3,1221.4z"/>
    <path class="st5-6077b8b7839fc"
          d="M1149.5,892.2c-1.2,0-2.2-1-2.2-2.1c0-1.2,1-2.2,2.1-2.2c1.2,0,2.2,1,2.2,2.1c0,0,0,0,0,0  C1151.6,891.3,1150.7,892.2,1149.5,892.2C1149.5,892.2,1149.5,892.2,1149.5,892.2z"/>
    <path class="st5-6077b8b7839fc"
          d="M1365.3,577.3c-4.2,0-7.6-3.4-7.6-7.6s3.4-7.6,7.6-7.6c4.2,0,7.6,3.4,7.6,7.6c0,0,0,0,0,0  C1372.9,573.9,1369.5,577.3,1365.3,577.3C1365.3,577.3,1365.3,577.3,1365.3,577.3z"/>
    <path class="st5-6077b8b7839fc"
          d="M1448.4,1216.4c-2.6,0-4.6-2.1-4.6-4.6s2.1-4.6,4.6-4.6c2.6,0,4.6,2.1,4.6,4.6S1451,1216.4,1448.4,1216.4  L1448.4,1216.4z"/>
    <path class="st5-6077b8b7839fc"
          d="M1404.9,1096.6c-5,0-9-4-9-9s4-9,9-9s9,4,9,9S1409.9,1096.6,1404.9,1096.6L1404.9,1096.6z"/>
    <path class="st5-6077b8b7839fc"
          d="M261.6,566.7c-5.9,0-10.7-4.8-10.7-10.7c0-5.9,4.8-10.7,10.7-10.7c5.9,0,10.7,4.8,10.7,10.7c0,0,0,0,0,0  C272.2,561.9,267.5,566.7,261.6,566.7z"/>
    <circle class="st5-6077b8b7839fc" cx="548.8" cy="540" r="7.9"/>
    <circle class="st5-6077b8b7839fc" cx="1061.2" cy="245.3" r="2.5"/>
    <path class="st5-6077b8b7839fc"
          d="M814.1,324.8c-4.7,0-8.5-3.8-8.5-8.5s3.8-8.5,8.5-8.5s8.5,3.8,8.5,8.5C822.6,321,818.8,324.8,814.1,324.8  C814.1,324.8,814.1,324.8,814.1,324.8z"/>
    <path class="st5-6077b8b7839fc"
          d="M817.6,86c-5.9,0-10.7-4.8-10.7-10.7c0-5.9,4.8-10.7,10.7-10.7c5.9,0,10.7,4.8,10.7,10.7  C828.3,81.2,823.5,86,817.6,86C817.6,86,817.6,86,817.6,86z"/>
    <path class="st5-6077b8b7839fc"
          d="M453.6,63c-2.5,0-4.6-2-4.6-4.5c0-2.5,2-4.6,4.5-4.6c2.5,0,4.6,2,4.6,4.5c0,0,0,0,0,0  C458.1,61,456.1,63,453.6,63z"/>
    <path class="st5-6077b8b7839fc"
          d="M370.2,110.5c-3.9,0-7-3.1-7-7s3.1-7,7-7s7,3.1,7,7S374.1,110.5,370.2,110.5L370.2,110.5z"/>
    <circle class="st5-6077b8b7839fc" cx="605.1" cy="115.9" r="6.4"/>
    <path class="st5-6077b8b7839fc"
          d="M711.3,273c-3.9,0-7.1-3.2-7.1-7.1s3.2-7.1,7.1-7.1s7.1,3.2,7.1,7.1C718.4,269.9,715.2,273,711.3,273L711.3,273  z"/>
    <path class="st5-6077b8b7839fc"
          d="M965.6,392.2c-5.5,0-9.9-4.4-9.9-9.9s4.4-9.9,9.9-9.9c5.5,0,9.9,4.4,9.9,9.9c0,0,0,0,0,0  C975.5,387.8,971.1,392.2,965.6,392.2C965.6,392.2,965.6,392.2,965.6,392.2z"/>
    <path class="st5-6077b8b7839fc"
          d="M1098.4,652.6c-4.7,0-8.6-3.8-8.6-8.6s3.8-8.6,8.6-8.6c4.7,0,8.6,3.8,8.6,8.6  C1107,648.7,1103.2,652.6,1098.4,652.6L1098.4,652.6z"/>
    <path class="st5-6077b8b7839fc"
          d="M1322.7,757c-1.8,0-3.3-1.5-3.3-3.3s1.5-3.3,3.3-3.3s3.3,1.5,3.3,3.3C1326,755.6,1324.5,757,1322.7,757  L1322.7,757z"/>
    <path class="st5-6077b8b7839fc"
          d="M1535.8,326.5c-2.3,0-4.2-1.9-4.2-4.2s1.9-4.2,4.2-4.2c2.3,0,4.2,1.9,4.2,4.2c0,0,0,0,0,0  C1540.1,324.6,1538.2,326.5,1535.8,326.5C1535.8,326.5,1535.8,326.5,1535.8,326.5z"/>
    <path class="st5-6077b8b7839fc"
          d="M1313.8,367.8c-5.8,0-10.5-4.7-10.5-10.5s4.7-10.5,10.5-10.5c5.8,0,10.5,4.7,10.5,10.5c0,0,0,0,0,0  C1324.4,363,1319.7,367.8,1313.8,367.8C1313.8,367.8,1313.8,367.8,1313.8,367.8z"/>
    <path class="st5-6077b8b7839fc"
          d="M1141.4,303.8c-2,0-3.5-1.6-3.5-3.5s1.6-3.5,3.5-3.5c2,0,3.5,1.6,3.5,3.5S1143.3,303.8,1141.4,303.8  L1141.4,303.8z"/>
    <path class="st5-6077b8b7839fc"
          d="M852.9,406.6c-5.6,0-10.1-4.5-10.1-10.1s4.5-10.1,10.1-10.1c5.6,0,10.1,4.5,10.1,10.1  C863.1,402.1,858.5,406.6,852.9,406.6C852.9,406.6,852.9,406.6,852.9,406.6z"/>
    <path class="st5-6077b8b7839fc"
          d="M1241.3,104.8c-1.3,0-2.4-1.1-2.4-2.4s1.1-2.4,2.4-2.4c1.3,0,2.4,1.1,2.4,2.4c0,0,0,0,0,0  C1243.7,103.7,1242.7,104.7,1241.3,104.8z"/>
    <circle class="st5-6077b8b7839fc" cx="1285.2" cy="208.6" r="4.3"/>
    <path class="st5-6077b8b7839fc"
          d="M1306.9,648.8c-2.5,0-4.5-2-4.5-4.5s2-4.5,4.5-4.5c2.5,0,4.5,2,4.5,4.5S1309.4,648.8,1306.9,648.8L1306.9,648.8  z"/>
    <ellipse transform="matrix(0.9239 -0.3827 0.3827 0.9239 -345.4067 277.5438)" class="st5-6077b8b7839fc" cx="524.9"
             cy="1007" rx="37.7" ry="37.7"/>
    <path class="st5-6077b8b7839fc"
          d="M139.9,1442.8c-5.9,0-10.7-4.8-10.7-10.7c0-5.9,4.8-10.7,10.7-10.7s10.7,4.8,10.7,10.7v0  C150.6,1438,145.8,1442.8,139.9,1442.8z"/>
    <path class="st5-6077b8b7839fc"
          d="M75.9,1624c-3.4,0-6.1-2.7-6.1-6.1c0-3.4,2.7-6.1,6.1-6.1c3.4,0,6.1,2.7,6.1,6.1c0,0,0,0,0,0  C82,1621.2,79.3,1624,75.9,1624z"/>
    <circle class="st5-6077b8b7839fc" cx="252.5" cy="1736" r="3.5"/>
    <circle class="st5-6077b8b7839fc" cx="410.8" cy="1446.1" r="3.8"/>
    <circle class="st5-6077b8b7839fc" cx="635.6" cy="1661.4" r="8"/>
    <path class="st5-6077b8b7839fc"
          d="M827.2,1566c-1.4,0-2.6-1.2-2.6-2.6s1.2-2.6,2.6-2.6s2.6,1.2,2.6,2.6c0,0,0,0,0,0  C829.8,1564.9,828.6,1566,827.2,1566L827.2,1566z"/>
    <path class="st5-6077b8b7839fc"
          d="M1074.7,1486.2c-1.5,0-2.7-1.2-2.7-2.6c0-1.5,1.2-2.7,2.6-2.7c1.5,0,2.7,1.2,2.7,2.6c0,0,0,0,0,0  C1077.3,1485,1076.1,1486.2,1074.7,1486.2z"/>
    <path class="st5-6077b8b7839fc"
          d="M1303.2,1170c-5.4,0-9.8-4.4-9.8-9.8s4.4-9.8,9.8-9.8s9.8,4.4,9.8,9.8l0,0  C1312.9,1165.6,1308.6,1170,1303.2,1170z"/>
    <path class="st5-6077b8b7839fc"
          d="M1653.4,1307.6c-3,0-5.3-2.4-5.3-5.4s2.4-5.3,5.4-5.3c3,0,5.3,2.4,5.3,5.3S1656.3,1307.6,1653.4,1307.6  L1653.4,1307.6z"/>
    <path class="st5-6077b8b7839fc"
          d="M1486.5,1480.9c-4.1,0-7.4-3.3-7.4-7.4s3.3-7.4,7.4-7.4c4.1,0,7.4,3.3,7.4,7.4v0  C1493.9,1477.6,1490.6,1480.9,1486.5,1480.9z"/>
    <circle class="st5-6077b8b7839fc" cx="1415.9" cy="1725.9" r="5.3"/>
    <circle class="st5-6077b8b7839fc" cx="1212.1" cy="1170.4" r="5"/>
    <path class="st5-6077b8b7839fc"
          d="M798.2,1647.8c-2.9,0-5.2-2.3-5.2-5.2s2.3-5.2,5.2-5.2c2.9,0,5.2,2.3,5.2,5.2c0,0,0,0,0,0  C803.4,1645.5,801.1,1647.8,798.2,1647.8C798.2,1647.8,798.2,1647.8,798.2,1647.8z"/>
    <circle class="st5-6077b8b7839fc" cx="531" cy="1061.4" r="2.1"/>
    <path class="st5-6077b8b7839fc"
          d="M584.7,1571.5c-3,0-5.4-2.4-5.4-5.4c0-3,2.4-5.4,5.4-5.4s5.4,2.4,5.4,5.4c0,0,0,0,0,0  C590.1,1569.1,587.7,1571.5,584.7,1571.5C584.7,1571.5,584.7,1571.5,584.7,1571.5z"/>
    <path class="st5-6077b8b7839fc"
          d="M478.7,1072.5c-5.7,0-10.3-4.6-10.3-10.3c0-5.7,4.6-10.3,10.3-10.3c5.7,0,10.3,4.6,10.3,10.3  C489,1067.9,484.4,1072.5,478.7,1072.5C478.7,1072.5,478.7,1072.5,478.7,1072.5z"/>
    <circle class="st5-6077b8b7839fc" cx="555.2" cy="1221.7" r="8"/>
    <path class="st5-6077b8b7839fc"
          d="M122.4,1032.7c-5.7,0-10.3-4.6-10.3-10.3s4.6-10.3,10.3-10.3s10.3,4.6,10.3,10.3  C132.7,1028.1,128.1,1032.7,122.4,1032.7C122.4,1032.7,122.4,1032.7,122.4,1032.7z"/>
    <path class="st5-6077b8b7839fc"
          d="M27.9,792c-2.9,0-5.3-2.4-5.3-5.3c0-2.9,2.4-5.3,5.3-5.3c2.9,0,5.3,2.4,5.3,5.3c0,0,0,0,0,0  C33.2,789.6,30.9,792,27.9,792C27.9,792,27.9,792,27.9,792z"/>
    <path class="st5-6077b8b7839fc"
          d="M525.3,1893.4c-2.3,0-4.1-1.8-4.1-4.1c0-2.3,1.8-4.1,4.1-4.1c2.3,0,4.1,1.8,4.1,4.1S527.5,1893.4,525.3,1893.4  L525.3,1893.4z"/>
    <path class="st5-6077b8b7839fc"
          d="M139.9,1905.5c-4.5,0-8.1-3.6-8.1-8.1s3.6-8.1,8.1-8.1c4.5,0,8.1,3.6,8.1,8.1S144.4,1905.5,139.9,1905.5  L139.9,1905.5z"/>
    <path class="st5-6077b8b7839fc"
          d="M300.8,1801.5c-3,0-5.4-2.4-5.4-5.4c0-3,2.4-5.4,5.4-5.4c3,0,5.4,2.4,5.4,5.4v0  C306.3,1799.1,303.8,1801.5,300.8,1801.5z"/>
    <circle class="st5-6077b8b7839fc" cx="174.4" cy="1562.5" r="2.8"/>
    <circle class="st5-6077b8b7839fc" cx="574.2" cy="1759.6" r="6.8"/>
    <path class="st5-6077b8b7839fc"
          d="M583.1,1391.4c-2,0-3.6-1.6-3.6-3.6s1.6-3.6,3.6-3.6c2,0,3.6,1.6,3.6,3.6v0  C586.7,1389.8,585.1,1391.4,583.1,1391.4z"/>
    <circle class="st5-6077b8b7839fc" cx="791" cy="1102.6" r="4.5"/>
    <circle class="st5-6077b8b7839fc" cx="973.1" cy="1146" r="5"/>
    <path class="st5-6077b8b7839fc"
          d="M1128.6,1145.5c-2,0-3.7-1.7-3.7-3.7s1.7-3.7,3.7-3.7c2,0,3.7,1.7,3.7,3.7c0,0,0,0,0,0  C1132.3,1143.9,1130.6,1145.5,1128.6,1145.5z"/>
    <path class="st10-6077b8b7839fc"
          d="M695.1,674.1c0-2.5,2-4.5,4.5-4.5c2.5,0,4.5,2,4.5,4.5c0,2.5-2,4.5-4.5,4.5c0,0,0,0,0,0  C697.1,678.6,695.1,676.6,695.1,674.1z"/>
    <path class="st10-6077b8b7839fc"
          d="M678.6,734.9c0-2.3,1.9-4.1,4.2-4.1s4.1,1.9,4.1,4.2c0,2.2-1.8,4.1-4.1,4.1  C680.4,739.1,678.6,737.2,678.6,734.9C678.6,734.9,678.6,734.9,678.6,734.9z"/>
    <path class="st10-6077b8b7839fc"
          d="M709.6,637.2c0-2.5,2.1-4.6,4.6-4.6c2.5,0,4.6,2.1,4.6,4.6c0,2.5-2.1,4.6-4.6,4.6  C711.6,641.8,709.6,639.7,709.6,637.2C709.6,637.2,709.6,637.2,709.6,637.2z"/>
    <path class="st10-6077b8b7839fc"
          d="M577.4,750.7c0-2,1.6-3.7,3.7-3.7c2,0,3.7,1.6,3.7,3.7s-1.6,3.7-3.7,3.7l0,0  C579.1,754.4,577.4,752.7,577.4,750.7z"/>
    <circle class="st10-6077b8b7839fc" cx="519.8" cy="807.2" r="4.4"/>
    <path class="st10-6077b8b7839fc"
          d="M497.1,740.2c0-2.6,2.1-4.7,4.7-4.7c2.6,0,4.7,2.1,4.7,4.7c0,2.6-2.1,4.7-4.7,4.7c0,0,0,0,0,0  C499.2,744.9,497.1,742.8,497.1,740.2z"/>
    <path class="st10-6077b8b7839fc"
          d="M448.4,680.7c0-2.9,2.4-5.2,5.2-5.2c2.9,0,5.2,2.4,5.2,5.2c0,2.9-2.3,5.2-5.2,5.2  C450.7,685.9,448.4,683.6,448.4,680.7C448.4,680.7,448.4,680.7,448.4,680.7z"/>
    <circle class="st10-6077b8b7839fc" cx="438.6" cy="656.2" r="4.6"/>
    <circle class="st10-6077b8b7839fc" cx="352.3" cy="661.4" r="4.1"/>
    <circle class="st10-6077b8b7839fc" cx="272.6" cy="599.4" r="4.4"/>
    <circle class="st10-6077b8b7839fc" cx="189.3" cy="501.9" r="4"/>
    <path class="st10-6077b8b7839fc"
          d="M141.7,504.7c0-2.5,2-4.5,4.5-4.5c2.5,0,4.5,2,4.5,4.5c0,2.5-2,4.5-4.5,4.5c0,0,0,0,0,0  C143.7,509.2,141.7,507.2,141.7,504.7L141.7,504.7z"/>
    <path class="st10-6077b8b7839fc"
          d="M19.1,417.3c0-2.9,2.3-5.2,5.2-5.2c2.9,0,5.2,2.3,5.2,5.2s-2.3,5.2-5.2,5.2l0,0  C21.4,422.5,19.1,420.1,19.1,417.3z"/>
    <path class="st10-6077b8b7839fc"
          d="M29.3,366.2c0-2,1.7-3.7,3.7-3.7c2,0,3.7,1.7,3.7,3.7s-1.7,3.7-3.7,3.7c0,0,0,0,0,0  C31,369.9,29.3,368.2,29.3,366.2z"/>
    <path class="st10-6077b8b7839fc"
          d="M183.5,301.4c0-2.6,2.1-4.7,4.7-4.7c2.6,0,4.7,2.1,4.7,4.7s-2.1,4.7-4.7,4.7l0,0  C185.6,306.1,183.5,304,183.5,301.4z"/>
    <path class="st10-6077b8b7839fc"
          d="M134.9,308.4c0-2.6,2.1-4.7,4.7-4.7c2.6,0,4.7,2.1,4.8,4.7s-2.1,4.7-4.7,4.7c0,0,0,0,0,0  C137,313.1,134.9,311,134.9,308.4z"/>
    <ellipse transform="matrix(0.1602 -0.9871 0.9871 0.1602 1390.1813 3673.6831)" class="st10-6077b8b7839fc" cx="2854"
             cy="1019.9" rx="5.3" ry="5.3"/>
    <circle class="st10-6077b8b7839fc" cx="2958.4" cy="1079.2" r="4.5"/>
    <circle class="st10-6077b8b7839fc" cx="2998.3" cy="936.4" r="4.1"/>
    <circle class="st10-6077b8b7839fc" cx="3079.2" cy="1008.4" r="4.1"/>
    <circle class="st10-6077b8b7839fc" cx="3160.3" cy="1064.6" r="4.9"/>
    <path class="st10-6077b8b7839fc"
          d="M3194.4,1053.3c0-2.1,1.7-3.9,3.9-3.9s3.9,1.7,3.9,3.9c0,2.1-1.7,3.9-3.9,3.9S3194.4,1055.4,3194.4,1053.3  L3194.4,1053.3z"/>
    <path class="st10-6077b8b7839fc"
          d="M3309.4,1065.4c0-2.1,1.7-3.8,3.8-3.8c2.1,0,3.8,1.7,3.8,3.8c0,2.1-1.7,3.8-3.8,3.8  S3309.4,1067.5,3309.4,1065.4L3309.4,1065.4z"/>
    <path class="st10-6077b8b7839fc"
          d="M3313.4,1012.3c0-2.3,1.8-4.1,4.1-4.1c2.3,0,4.1,1.8,4.1,4.1c0,2.3-1.8,4.1-4.1,4.1c0,0,0,0,0,0  C3315.2,1016.4,3313.4,1014.5,3313.4,1012.3z"/>
    <path class="st10-6077b8b7839fc"
          d="M3441.2,888.8c0-2.3,1.9-4.2,4.2-4.2c2.3,0,4.2,1.9,4.2,4.2c0,2.3-1.9,4.2-4.2,4.2l0,0  C3443.1,893,3441.2,891.1,3441.2,888.8C3441.2,888.8,3441.2,888.8,3441.2,888.8z"/>
    <path class="st10-6077b8b7839fc"
          d="M3483.3,1025c0,2.3-1.9,4.2-4.2,4.2c-2.3,0-4.2-1.9-4.2-4.2s1.9-4.2,4.2-4.2  C3481.4,1020.8,3483.3,1022.6,3483.3,1025z"/>
    <circle class="st10-6077b8b7839fc" cx="3528" cy="1105.6" r="3.7"/>
    <path class="st10-6077b8b7839fc"
          d="M3536.6,1162.4c0-2.9,2.3-5.2,5.2-5.2c2.9,0,5.2,2.3,5.2,5.2c0,2.9-2.3,5.2-5.2,5.2  S3536.6,1165.3,3536.6,1162.4L3536.6,1162.4z"/>
    <circle class="st10-6077b8b7839fc" cx="3621.8" cy="1190.3" r="3.7"/>
    <path class="st10-6077b8b7839fc"
          d="M3617.6,1195.3c0-2.4,1.9-4.3,4.3-4.3c2.4,0,4.3,1.9,4.3,4.3c0,2.4-1.9,4.3-4.3,4.3c0,0,0,0,0,0  C3619.5,1199.6,3617.6,1197.7,3617.6,1195.3C3617.6,1195.3,3617.6,1195.3,3617.6,1195.3z"/>
    <path class="st10-6077b8b7839fc"
          d="M3689.7,1215.2c0-2.8,2.3-5.2,5.2-5.2c2.8,0,5.1,2.3,5.1,5.2c0,2.8-2.3,5.2-5.2,5.2S3689.7,1218,3689.7,1215.2  L3689.7,1215.2z"/>
    <circle class="st10-6077b8b7839fc" cx="3605.4" cy="1354.4" r="3.7"/>
    <path class="st10-6077b8b7839fc"
          d="M3609.9,1413.7c0-2.1,1.7-3.8,3.8-3.8c2.1,0,3.8,1.7,3.8,3.8c0,2.1-1.7,3.8-3.8,3.8c0,0,0,0,0,0  C3611.6,1417.5,3609.9,1415.8,3609.9,1413.7C3609.9,1413.7,3609.9,1413.7,3609.9,1413.7z"/>
    <circle class="st10-6077b8b7839fc" cx="3697.1" cy="1366.6" r="4.2"/>
    <path class="st10-6077b8b7839fc"
          d="M406.2,1139.3c0-2.6,2.1-4.8,4.8-4.8s4.8,2.1,4.8,4.8c0,2.6-2.1,4.8-4.8,4.8c0,0,0,0,0,0  C408.4,1144.1,406.2,1141.9,406.2,1139.3C406.2,1139.3,406.2,1139.3,406.2,1139.3z"/>
    <circle class="st10-6077b8b7839fc" cx="411.2" cy="1163.9" r="4.3"/>
    <path class="st10-6077b8b7839fc" d="M428.5,1224.1c0-2.8,2.2-5,5-5s5,2.2,5,5s-2.2,5-5,5S428.5,1226.9,428.5,1224.1z"/>
    <circle class="st10-6077b8b7839fc" cx="476" cy="1341.3" r="5.3"/>
    <path class="st10-6077b8b7839fc"
          d="M536.8,1319.4c0-2.7,2.1-4.8,4.8-4.8s4.8,2.1,4.8,4.8c0,2.7-2.1,4.8-4.8,4.8c0,0,0,0,0,0  C539,1324.2,536.8,1322,536.8,1319.4z"/>
    <path class="st10-6077b8b7839fc"
          d="M592.9,1413.4c0-2.1,1.7-3.9,3.8-3.9c2.1,0,3.9,1.7,3.9,3.8c0,2.1-1.7,3.9-3.8,3.9c0,0,0,0,0,0  C594.6,1417.2,592.9,1415.5,592.9,1413.4L592.9,1413.4z"/>
    <circle class="st10-6077b8b7839fc" cx="643.7" cy="1251.4" r="4.9"/>
    <circle class="st10-6077b8b7839fc" cx="712.8" cy="1269" r="3.8"/>
    <path class="st10-6077b8b7839fc"
          d="M795.3,1429.5c0-2.6,2.1-4.7,4.7-4.7c2.6,0,4.7,2.1,4.7,4.7c0,2.6-2.1,4.7-4.7,4.7l0,0  C797.5,1434.2,795.3,1432.1,795.3,1429.5C795.3,1429.5,795.3,1429.5,795.3,1429.5z"/>
    <path class="st10-6077b8b7839fc"
          d="M877.6,1269.6c0-2.3,1.9-4.2,4.2-4.2c2.3,0,4.2,1.9,4.2,4.2c0,2.3-1.9,4.2-4.2,4.2l0,0  C879.5,1273.8,877.6,1272,877.6,1269.6z"/>
    <circle class="st10-6077b8b7839fc" cx="977.6" cy="1393.5" r="4.6"/>
    <circle class="st10-6077b8b7839fc" cx="1008.9" cy="1276.9" r="4.9"/>
    <path class="st10-6077b8b7839fc"
          d="M1058.1,1207.3c0-2.8,2.2-5,5-5s5,2.2,5,5s-2.2,5-5,5S1058.1,1210.1,1058.1,1207.3z"/>
    <circle class="st10-6077b8b7839fc" cx="1091.6" cy="1266.9" r="5.2"/>
    <path class="st10-6077b8b7839fc"
          d="M1181.6,1326.3c0-2.7,2.2-4.9,4.9-4.9c2.7,0,4.9,2.2,4.9,4.9s-2.2,4.9-4.9,4.9l0,0  C1183.8,1331.2,1181.6,1329,1181.6,1326.3z"/>
    <path class="st10-6077b8b7839fc"
          d="M1288.7,1450.9c0-2.1,1.7-3.9,3.9-3.9c2.1,0,3.9,1.7,3.9,3.9c0,2.1-1.7,3.9-3.9,3.9S1288.7,1453,1288.7,1450.9  L1288.7,1450.9z"/>
    <path class="st10-6077b8b7839fc"
          d="M1343.1,1442c0-2.5,2-4.4,4.4-4.4s4.4,2,4.4,4.4c0,2.5-2,4.4-4.4,4.4l0,0  C1345.1,1446.5,1343.1,1444.5,1343.1,1442z"/>
    <circle class="st10-6077b8b7839fc" cx="1473.4" cy="1417.6" r="3.6"/>
    <path class="st10-6077b8b7839fc"
          d="M2224.7,1214.3c0-2,1.7-3.7,3.7-3.7c2,0,3.7,1.7,3.7,3.7c0,2-1.7,3.7-3.7,3.7c0,0,0,0,0,0  C2226.4,1218,2224.7,1216.3,2224.7,1214.3z"/>
    <circle class="st10-6077b8b7839fc" cx="2169.2" cy="1359.5" r="5.3"/>
    <circle class="st10-6077b8b7839fc" cx="2091.5" cy="1243.6" r="4.4"/>
    <circle class="st10-6077b8b7839fc" cx="1963.8" cy="1246.3" r="3.8"/>
    <circle class="st10-6077b8b7839fc" cx="1887.8" cy="1330.8" r="4.5"/>
    <path class="st10-6077b8b7839fc"
          d="M1767.3,1300.3c0-2.8,2.3-5.2,5.2-5.2c2.8,0,5.2,2.3,5.2,5.2c0,2.8-2.3,5.2-5.2,5.2  C1769.6,1305.5,1767.3,1303.2,1767.3,1300.3C1767.3,1300.3,1767.3,1300.3,1767.3,1300.3z"/>
    <path class="st10-6077b8b7839fc"
          d="M1696.2,1287.6c0-2.5,2.1-4.6,4.6-4.6s4.6,2.1,4.6,4.6s-2.1,4.6-4.6,4.6c0,0,0,0,0,0  C1698.3,1292.2,1696.2,1290.1,1696.2,1287.6z"/>
    <path class="st10-6077b8b7839fc"
          d="M1707.8,1432.1c0-2.6,2.1-4.6,4.6-4.6s4.6,2.1,4.6,4.6s-2.1,4.6-4.6,4.6  C1709.9,1436.7,1707.8,1434.7,1707.8,1432.1C1707.8,1432.1,1707.8,1432.1,1707.8,1432.1z"/>
    <circle class="st10-6077b8b7839fc" cx="2820.2" cy="298.9" r="5.4"/>
    <circle class="st10-6077b8b7839fc" cx="2733.9" cy="510.6" r="7.7"/>
    <path class="st10-6077b8b7839fc"
          d="M2614.1,341.7c0-3.5,2.9-6.4,6.4-6.4s6.4,2.9,6.4,6.4c0,3.5-2.9,6.4-6.4,6.4  C2617,348.1,2614.1,345.2,2614.1,341.7C2614.1,341.7,2614.1,341.7,2614.1,341.7z"/>
    <path class="st10-6077b8b7839fc"
          d="M2428.7,345.6c0-3.1,2.5-5.5,5.5-5.5s5.5,2.5,5.5,5.5s-2.5,5.5-5.5,5.5c0,0,0,0,0,0  C2431.2,351.1,2428.7,348.7,2428.7,345.6C2428.7,345.6,2428.7,345.6,2428.7,345.6z"/>
    <circle class="st10-6077b8b7839fc" cx="2323.5" cy="468.8" r="6.5"/>
    <circle class="st10-6077b8b7839fc" cx="2155.3" cy="424.4" r="7.5"/>
    <path class="st10-6077b8b7839fc"
          d="M2044.1,405.7c0-3.7,3-6.7,6.7-6.7c3.7,0,6.7,3,6.7,6.7c0,3.7-3,6.7-6.7,6.7  C2047.1,412.4,2044.1,409.4,2044.1,405.7z"/>
    <path class="st10-6077b8b7839fc"
          d="M2061.1,616.5c0-3.7,3-6.8,6.8-6.8c3.7,0,6.8,3,6.8,6.8c0,3.7-3,6.8-6.8,6.8c0,0,0,0,0,0  C2064.1,623.3,2061.1,620.2,2061.1,616.5z"/>
    <circle class="st10-6077b8b7839fc" cx="1725.7" cy="1634.2" r="5.4"/>
    <path class="st10-6077b8b7839fc"
          d="M1631.7,1845.8c0-4.2,3.4-7.7,7.7-7.7c4.2,0,7.7,3.4,7.7,7.7c0,4.2-3.4,7.7-7.7,7.7l0,0  C1635.1,1853.5,1631.7,1850.1,1631.7,1845.8z"/>
    <path class="st10-6077b8b7839fc"
          d="M1519.6,1676.9c0-3.5,2.9-6.4,6.4-6.4c3.5,0,6.4,2.9,6.4,6.4s-2.9,6.4-6.4,6.4l0,0  C1522.5,1683.3,1519.6,1680.4,1519.6,1676.9z"/>
    <path class="st10-6077b8b7839fc"
          d="M1334.2,1680.8c0-3.1,2.5-5.5,5.5-5.5c3.1,0,5.5,2.5,5.5,5.5c0,3.1-2.5,5.5-5.5,5.5  C1336.7,1686.4,1334.2,1683.9,1334.2,1680.8C1334.2,1680.8,1334.2,1680.8,1334.2,1680.8z"/>
    <circle class="st10-6077b8b7839fc" cx="1229" cy="1804" r="6.5"/>
    <path class="st10-6077b8b7839fc"
          d="M1053.3,1759.6c0-4.1,3.4-7.5,7.5-7.5s7.5,3.4,7.5,7.5c0,4.1-3.4,7.5-7.5,7.5c0,0,0,0,0,0  C1056.7,1767.1,1053.3,1763.7,1053.3,1759.6z"/>
    <path class="st10-6077b8b7839fc"
          d="M949.6,1741c0-3.7,3-6.7,6.7-6.7c3.7,0,6.7,3,6.7,6.7c0,3.7-3,6.7-6.7,6.7l0,0  C952.6,1747.7,949.6,1744.7,949.6,1741z"/>
    <path class="st10-6077b8b7839fc"
          d="M966.6,1951.7c0-3.7,3-6.8,6.8-6.8s6.8,3,6.8,6.8s-3,6.8-6.8,6.8S966.6,1955.4,966.6,1951.7L966.6,1951.7z"/>
    <path class="st10-6077b8b7839fc"
          d="M698.6,655.9c0-2.2,1.8-3.9,3.9-3.9c2.2,0,3.9,1.8,3.9,3.9s-1.8,3.9-3.9,3.9l0,0  C700.3,659.8,698.6,658,698.6,655.9C698.6,655.9,698.6,655.9,698.6,655.9z"/>
    <path class="st10-6077b8b7839fc" d="M738.2,624c0-2.8,2.2-5,5-5s5,2.2,5,5s-2.2,5-5,5S738.2,626.8,738.2,624z"/>
    <path class="st10-6077b8b7839fc"
          d="M847.1,735.9c0-3,2.4-5.4,5.4-5.4c3,0,5.4,2.4,5.4,5.4s-2.4,5.4-5.4,5.4l0,0  C849.6,741.3,847.1,738.9,847.1,735.9z"/>
    <path class="st10-6077b8b7839fc"
          d="M874.2,714.8c0-2.5,2-4.6,4.6-4.6c2.5,0,4.6,2,4.6,4.6c0,2.5-2,4.6-4.6,4.6S874.2,717.3,874.2,714.8  L874.2,714.8z"/>
    <circle class="st10-6077b8b7839fc" cx="964.7" cy="798.5" r="3.9"/>
    <circle class="st10-6077b8b7839fc" cx="970.2" cy="758.1" r="5.3"/>
    <path class="st10-6077b8b7839fc"
          d="M997.3,669.5c0-2.7,2.2-4.9,4.9-4.9c2.7,0,4.9,2.2,4.9,4.9c0,2.7-2.2,4.9-4.9,4.9l0,0  C999.5,674.4,997.3,672.2,997.3,669.5z"/>
    <path class="st10-6077b8b7839fc"
          d="M1043.9,791.4c0-2.6,2.1-4.8,4.8-4.8s4.8,2.1,4.8,4.8c0,2.6-2.1,4.8-4.8,4.8S1043.9,794,1043.9,791.4  L1043.9,791.4z"/>
    <path class="st10-6077b8b7839fc"
          d="M1166.7,677.5c0-2.9,2.4-5.3,5.3-5.3s5.3,2.4,5.3,5.3s-2.4,5.3-5.3,5.3S1166.7,680.4,1166.7,677.5  L1166.7,677.5z"/>
    <path class="st10-6077b8b7839fc"
          d="M1173.9,657.4c0-2.4,1.9-4.4,4.4-4.4c2.4,0,4.4,1.9,4.4,4.4c0,2.4-1.9,4.4-4.4,4.4c0,0,0,0,0,0  C1175.9,661.7,1173.9,659.8,1173.9,657.4z"/>
    <circle class="st10-6077b8b7839fc" cx="1292.7" cy="547.4" r="4.6"/>
    <path class="st10-6077b8b7839fc" d="M1389.9,629.4c0-2.2,1.8-4,4-4s4,1.8,4,4s-1.8,4-4,4S1389.9,631.6,1389.9,629.4z"/>
    <path class="st10-6077b8b7839fc"
          d="M1452.4,597.5c0-2.4,1.9-4.3,4.3-4.3s4.3,1.9,4.3,4.3c0,2.4-1.9,4.3-4.3,4.3S1452.4,599.9,1452.4,597.5  L1452.4,597.5z"/>
    <circle class="st10-6077b8b7839fc" cx="1584.4" cy="628.9" r="3.9"/>
    <path class="st10-6077b8b7839fc"
          d="M1698,760.3c0-2.7,2.1-4.8,4.8-4.8s4.8,2.1,4.8,4.8s-2.1,4.8-4.8,4.8c0,0,0,0,0,0  C1700.1,765.1,1698,762.9,1698,760.3z"/>
    <path class="st10-6077b8b7839fc" d="M1730.7,587c0-2.8,2.2-5,5-5s5,2.2,5,5s-2.2,5-5,5S1730.7,589.7,1730.7,587z"/>
    <path class="st10-6077b8b7839fc" d="M1763.7,622.6c0-2.2,1.8-4,4-4s4,1.8,4,4s-1.8,4-4,4S1763.7,624.8,1763.7,622.6z"/>
    <path class="st10-6077b8b7839fc"
          d="M1774.8,753.3c0-2.5,2-4.6,4.6-4.6c2.5,0,4.6,2,4.6,4.6s-2,4.6-4.6,4.6l0,0  C1776.8,757.9,1774.8,755.8,1774.8,753.3z"/>
    <path class="st10-6077b8b7839fc"
          d="M2485.9,1377.5c0-2.7,2.2-4.9,4.9-4.9s4.9,2.2,4.9,4.9s-2.2,4.9-4.9,4.9S2485.9,1380.2,2485.9,1377.5  L2485.9,1377.5z"/>
    <path class="st10-6077b8b7839fc"
          d="M2373,1250.8c0-2.1,1.7-3.7,3.7-3.7s3.7,1.7,3.7,3.7c0,2.1-1.7,3.7-3.7,3.7l0,0  C2374.7,1254.5,2373,1252.9,2373,1250.8z"/>
    <path class="st10-6077b8b7839fc"
          d="M2362.9,1394.2c0-2.2,1.7-3.9,3.9-3.9c2.2,0,3.9,1.7,3.9,3.9c0,2.2-1.7,3.9-3.9,3.9  C2364.7,1398.1,2362.9,1396.4,2362.9,1394.2L2362.9,1394.2z"/>
    <path class="st10-6077b8b7839fc"
          d="M2261,1201.9c0-2.5,2-4.6,4.6-4.6c2.5,0,4.6,2,4.6,4.6c0,2.5-2,4.6-4.6,4.6  C2263.1,1206.5,2261,1204.4,2261,1201.9L2261,1201.9z"/>
    <path class="st10-6077b8b7839fc"
          d="M2181.8,1373.8c0-2.9,2.3-5.2,5.2-5.2c2.9,0,5.2,2.3,5.2,5.2c0,2.9-2.3,5.2-5.2,5.2l0,0  C2184.2,1379,2181.8,1376.7,2181.8,1373.8z"/>
    <path class="st10-6077b8b7839fc"
          d="M2060.5,1277.3c0-2.9,2.3-5.2,5.2-5.2c2.9,0,5.2,2.3,5.2,5.2c0,2.9-2.3,5.2-5.2,5.2c0,0,0,0,0,0  C2062.8,1282.5,2060.5,1280.2,2060.5,1277.3C2060.5,1277.3,2060.5,1277.3,2060.5,1277.3z"/>
    <path class="st10-6077b8b7839fc"
          d="M2044.1,1321.5c0-2.7,2.2-4.9,4.9-4.9c2.7,0,4.9,2.2,4.9,4.9c0,2.7-2.2,4.9-4.9,4.9  C2046.3,1326.4,2044.1,1324.2,2044.1,1321.5L2044.1,1321.5z"/>
    <path class="st10-6077b8b7839fc"
          d="M1958.4,1318.9c0-2.1,1.7-3.9,3.9-3.9s3.9,1.7,3.9,3.9c0,2.1-1.7,3.9-3.9,3.9c0,0,0,0,0,0  C1960.2,1322.8,1958.4,1321,1958.4,1318.9z"/>
    <path class="st10-6077b8b7839fc"
          d="M1881.3,1239.5c0-2.6,2.1-4.6,4.6-4.6s4.6,2.1,4.6,4.6s-2.1,4.6-4.6,4.6c0,0,0,0,0,0  C1883.4,1244.1,1881.3,1242,1881.3,1239.5z"/>
    <path class="st10-6077b8b7839fc"
          d="M1877.8,1227.5c0-2.6,2.1-4.7,4.7-4.7c2.6,0,4.7,2.1,4.7,4.7c0,2.6-2.1,4.7-4.7,4.7c0,0,0,0,0,0  C1880,1232.2,1877.8,1230.1,1877.8,1227.5z"/>
    <path class="st10-6077b8b7839fc"
          d="M1794.8,1354c0-2.3,1.9-4.2,4.2-4.2c2.3,0,4.2,1.9,4.2,4.2c0,2.3-1.9,4.2-4.2,4.2c0,0,0,0,0,0  C1796.7,1358.2,1794.8,1356.4,1794.8,1354z"/>
    <path class="st12-6077b8b7839fc"
          d="M3148.5,491c60.3,0,109.1-48.9,109.1-109.1c0-60.3-48.9-109.1-109.1-109.1s-109.1,48.9-109.1,109.1  c0,0,0,0,0,0C3039.3,442.2,3088.2,491,3148.5,491z M3126.2,434.2c-6.2,7.9-17.7,9.3-25.7,3.1c-7.9-6.2-9.3-17.7-3.1-25.7  c6.2-7.9,17.7-9.3,25.7-3.1c0,0,0,0,0,0C3131,414.7,3132.4,426.2,3126.2,434.2C3126.2,434.2,3126.2,434.2,3126.2,434.2L3126.2,434.2  z M3217.3,400c4.6-4.6,12-4.6,16.6,0c4.6,4.6,4.6,12,0,16.6s-12,4.6-16.6,0c0,0,0,0,0,0C3212.7,412.1,3212.7,404.6,3217.3,400z   M3190.5,427.1c10.2,0,18.4,8.3,18.4,18.4s-8.3,18.4-18.4,18.4c-10.2,0-18.4-8.3-18.4-18.4C3172.1,435.4,3180.3,427.1,3190.5,427.1  C3190.5,427.1,3190.5,427.1,3190.5,427.1L3190.5,427.1z M3155.7,418.4c6.6,0,11.9,5.3,11.9,11.9c0,6.6-5.3,11.9-11.9,11.9  s-11.9-5.3-11.9-11.9l0,0C3143.8,423.7,3149.1,418.4,3155.7,418.4z M3097,337.3c8.6-8.6,22.5-8.6,31.1,0c8.6,8.6,8.6,22.5,0,31.1  s-22.5,8.6-31.1,0c0,0,0,0,0,0C3088.4,359.8,3088.4,345.9,3097,337.3L3097,337.3z M3091.1,449.9c-3.2,4.1-9.1,4.8-13.1,1.6  c-4.1-3.2-4.8-9.1-1.6-13.1c3.2-4.1,9.1-4.8,13.1-1.6C3093.6,440,3094.3,445.9,3091.1,449.9L3091.1,449.9z M3082,325.3  c4.3,4.3,4.3,11.2,0,15.4c-4.3,4.3-11.2,4.3-15.4,0c-4.3-4.3-4.3-11.2,0-15.4C3070.8,321,3077.7,321,3082,325.3  C3082,325.3,3082,325.3,3082,325.3L3082,325.3z"/>
    <path class="st4-6077b8b7839fc"
          d="M3148.5,515.5c73.8,0,133.6-59.8,133.6-133.6s-59.8-133.6-133.6-133.6s-133.6,59.8-133.6,133.6v0  C3014.9,455.7,3074.7,515.5,3148.5,515.5z M3148.5,260.4c67.1,0,121.6,54.4,121.6,121.6c0,67.1-54.4,121.6-121.6,121.6  s-121.6-54.4-121.6-121.6c0,0,0,0,0,0C3026.9,314.8,3081.3,260.4,3148.5,260.4L3148.5,260.4z"/>
    <path class="st10-6077b8b7839fc"
          d="M1941.1,796.7c1.4-2.6,4.7-3.6,7.4-2.1c2.6,1.4,3.6,4.7,2.1,7.4s-4.7,3.6-7.4,2.1c0,0,0,0,0,0  C1940.6,802.6,1939.7,799.3,1941.1,796.7C1941.1,796.7,1941.1,796.7,1941.1,796.7z"/>
    <path class="st10-6077b8b7839fc"
          d="M1938.7,852.4c1.2-2.2,4.1-3.1,6.3-1.8c2.2,1.2,3.1,4.1,1.8,6.3c-1.2,2.2-4.1,3.1-6.3,1.8  C1938.3,857.5,1937.5,854.7,1938.7,852.4C1938.7,852.4,1938.7,852.4,1938.7,852.4z"/>
    <path class="st10-6077b8b7839fc"
          d="M2019.1,754c1-1.8,3.3-2.5,5.1-1.5c1.8,1,2.5,3.3,1.5,5.1c-1,1.8-3.3,2.5-5.1,1.5  C2018.8,758.2,2018.1,755.9,2019.1,754C2019.1,754,2019.1,754,2019.1,754z"/>
    <path class="st10-6077b8b7839fc"
          d="M2032.3,846.3c1.4-2.6,4.6-3.5,7.2-2.1s3.5,4.6,2.1,7.2c-1.4,2.6-4.6,3.5-7.2,2.1c0,0,0,0,0,0  C2031.9,852.1,2030.9,848.9,2032.3,846.3z"/>
    <path class="st10-6077b8b7839fc"
          d="M2063.7,846.8c1-1.9,3.4-2.5,5.2-1.5c1.9,1,2.5,3.4,1.5,5.2c-1,1.9-3.4,2.5-5.2,1.5c0,0,0,0,0,0  C2063.4,851,2062.7,848.7,2063.7,846.8z"/>
    <path class="st10-6077b8b7839fc"
          d="M2193.5,834c1.2-2.3,4.1-3.1,6.3-1.8c2.3,1.2,3.1,4.1,1.8,6.3c-1.2,2.3-4.1,3.1-6.3,1.8  C2193.1,839.1,2192.2,836.3,2193.5,834C2193.5,834,2193.5,834,2193.5,834z"/>
    <path class="st10-6077b8b7839fc"
          d="M2269.1,865.2c1.3-2.3,4.1-3.1,6.4-1.8c2.3,1.3,3.1,4.1,1.8,6.4c-1.3,2.3-4.1,3.1-6.4,1.8c0,0,0,0,0,0  C2268.7,870.3,2267.9,867.4,2269.1,865.2z"/>
    <path class="st10-6077b8b7839fc"
          d="M2323.6,969.6c1.1-2,3.6-2.7,5.7-1.6s2.7,3.6,1.6,5.7c-1.1,2-3.6,2.7-5.7,1.6c0,0,0,0,0,0  C2323.3,974.2,2322.5,971.7,2323.6,969.6z"/>
    <path class="st10-6077b8b7839fc"
          d="M2255.4,1077.8c1.1-2,3.6-2.7,5.5-1.6c2,1.1,2.7,3.6,1.6,5.5c-1.1,2-3.6,2.7-5.5,1.6c0,0,0,0,0,0  C2255.1,1082.2,2254.4,1079.7,2255.4,1077.8z"/>
    <path class="st10-6077b8b7839fc"
          d="M2381.5,936.5c1.3-2.4,4.3-3.4,6.8-2.1s3.4,4.3,2.1,6.8c-1.3,2.4-4.3,3.4-6.8,2.1c0,0,0,0-0.1,0  C2381.1,941.9,2380.2,938.9,2381.5,936.5C2381.5,936.5,2381.5,936.5,2381.5,936.5z"/>
    <path class="st10-6077b8b7839fc"
          d="M2276.9,1097.6c1.2-2.2,4-3,6.3-1.8c2.2,1.2,3,4,1.8,6.3c-1.2,2.2-4,3-6.3,1.8  C2276.5,1102.7,2275.7,1099.9,2276.9,1097.6z"/>
    <path class="st10-6077b8b7839fc"
          d="M2499.4,994.5c1.2-2.1,3.8-2.8,5.9-1.7c2.1,1.2,2.8,3.8,1.7,5.9c-1.2,2.1-3.8,2.8-5.9,1.7  C2499,999.2,2498.2,996.6,2499.4,994.5C2499.4,994.5,2499.4,994.5,2499.4,994.5z"/>
    <path class="st10-6077b8b7839fc"
          d="M2507.4,1123c1.3-2.3,4.2-3.1,6.5-1.9c2.3,1.3,3.1,4.2,1.9,6.5c-1.3,2.3-4.2,3.1-6.5,1.9  C2506.9,1128.2,2506.1,1125.3,2507.4,1123z"/>
    <path class="st10-6077b8b7839fc"
          d="M2587.1,1217c1.2-2.2,4-3,6.2-1.8c2.2,1.2,3,4,1.8,6.2c-1.2,2.2-4,3-6.2,1.8  C2586.6,1222,2585.8,1219.2,2587.1,1217C2587.1,1217,2587.1,1217,2587.1,1217z"/>
    <path class="st10-6077b8b7839fc"
          d="M2731.1,1251.2c1.4-2.5,4.6-3.4,7.1-2c2.5,1.4,3.4,4.6,2,7.1s-4.6,3.4-7.1,2c0,0,0,0,0,0  C2730.6,1256.9,2729.7,1253.8,2731.1,1251.2z"/>
    <path class="st10-6077b8b7839fc"
          d="M2714.2,1309.3c1.2-2.1,3.8-2.9,5.9-1.7c2.1,1.2,2.9,3.8,1.7,5.9c-1.2,2.1-3.8,2.9-5.9,1.7  C2713.9,1314.1,2713.1,1311.4,2714.2,1309.3C2714.2,1309.3,2714.2,1309.3,2714.2,1309.3z"/>
    <path class="st10-6077b8b7839fc"
          d="M2665.8,1395.8c1.2-2.2,4-3,6.2-1.8s3,4,1.8,6.2s-4,3-6.2,1.8c0,0,0,0,0,0  C2665.4,1400.8,2664.6,1398,2665.8,1395.8z"/>
    <path class="st10-6077b8b7839fc"
          d="M2817.8,1424.8c1.1-2,3.6-2.7,5.5-1.6s2.7,3.6,1.6,5.5c-1.1,2-3.6,2.7-5.5,1.6  C2817.4,1429.2,2816.7,1426.7,2817.8,1424.8C2817.8,1424.8,2817.8,1424.8,2817.8,1424.8z"/>
    <path class="st10-6077b8b7839fc"
          d="M2835,1507.1c1.3-2.3,4.2-3.2,6.5-1.9c2.3,1.3,3.2,4.2,1.9,6.5c-1.3,2.3-4.2,3.2-6.5,1.9  C2834.6,1512.4,2833.7,1509.4,2835,1507.1z"/>
    <path class="st10-6077b8b7839fc"
          d="M2825.7,1623.5c1.1-2,3.6-2.7,5.6-1.6c2,1.1,2.7,3.6,1.6,5.6c-1.1,2-3.6,2.7-5.6,1.6  C2825.3,1628,2824.6,1625.5,2825.7,1623.5z"/>
    <path class="st10-6077b8b7839fc"
          d="M2999.6,1518.1c1.3-2.4,4.3-3.3,6.7-1.9c2.4,1.3,3.3,4.3,1.9,6.7c-1.3,2.4-4.3,3.3-6.7,1.9  C2999.1,1523.5,2998.3,1520.5,2999.6,1518.1z"/>
    <path class="st10-6077b8b7839fc"
          d="M3082.7,1604.2c1.4-2.5,4.6-3.5,7.2-2.1c2.5,1.4,3.5,4.6,2.1,7.2c-1.4,2.5-4.6,3.5-7.2,2.1  C3082.2,1610,3081.3,1606.8,3082.7,1604.2C3082.7,1604.2,3082.7,1604.2,3082.7,1604.2z"/>
    <path class="st10-6077b8b7839fc"
          d="M3069.6,1763.1c1.2-2.1,3.9-2.9,6-1.7c2.1,1.2,2.9,3.9,1.7,6c-1.2,2.1-3.8,2.8-5.9,1.7  C3069.2,1767.9,3068.4,1765.3,3069.6,1763.1C3069.6,1763.1,3069.6,1763.1,3069.6,1763.1z"/>
    <path class="st10-6077b8b7839fc"
          d="M3166.6,1679.9c1.1-2.1,3.7-2.8,5.8-1.7c2.1,1.1,2.8,3.7,1.7,5.8s-3.7,2.8-5.8,1.7c0,0,0,0,0,0  C3166.2,1684.6,3165.5,1682,3166.6,1679.9z"/>
    <path class="st10-6077b8b7839fc"
          d="M3205,1573c1.3-2.4,4.3-3.2,6.7-1.9c2.4,1.3,3.2,4.3,1.9,6.7c-1.3,2.4-4.3,3.2-6.7,1.9c0,0,0,0,0,0  C3204.5,1578.3,3203.7,1575.3,3205,1573z"/>
    <path class="st10-6077b8b7839fc"
          d="M3275.7,1584.7c1.1-2,3.7-2.8,5.7-1.7c2,1.1,2.8,3.7,1.7,5.7c-1.1,2-3.7,2.8-5.7,1.7c0,0,0,0,0,0  C3275.3,1589.3,3274.5,1586.7,3275.7,1584.7z"/>
    <path class="st10-6077b8b7839fc"
          d="M3249.2,1457.8c1.2-2.1,3.8-2.8,5.9-1.7c2.1,1.2,2.8,3.8,1.7,5.9c-1.2,2.1-3.8,2.8-5.9,1.7  C3248.8,1462.5,3248.1,1459.9,3249.2,1457.8z"/>
    <path class="st10-6077b8b7839fc"
          d="M3337.9,1447.5c1.3-2.3,4.1-3.1,6.4-1.9c2.3,1.3,3.1,4.1,1.9,6.4s-4.1,3.1-6.4,1.9c0,0,0,0,0,0  C3337.5,1452.7,3336.7,1449.8,3337.9,1447.5C3337.9,1447.5,3337.9,1447.5,3337.9,1447.5z"/>
    <path class="st10-6077b8b7839fc"
          d="M3394.4,1434.1c1.1-1.9,3.5-2.6,5.4-1.6c1.9,1.1,2.6,3.5,1.6,5.4c-1.1,1.9-3.5,2.6-5.4,1.6  C3394.1,1438.5,3393.4,1436.1,3394.4,1434.1C3394.4,1434.1,3394.4,1434.1,3394.4,1434.1z"/>
    <path class="st10-6077b8b7839fc"
          d="M3386.8,1346.5c1.1-2.1,3.8-2.8,5.9-1.7s2.8,3.8,1.7,5.9c-1.1,2.1-3.8,2.8-5.9,1.7c0,0,0,0,0,0  C3386.4,1351.2,3385.7,1348.6,3386.8,1346.5C3386.8,1346.5,3386.8,1346.5,3386.8,1346.5z"/>
    <path class="st10-6077b8b7839fc"
          d="M3347.3,1257.4c1.2-2.1,3.9-2.9,6-1.8s2.9,3.9,1.8,6s-3.9,2.9-6,1.8c0,0,0,0,0,0  C3346.9,1262.2,3346.2,1259.5,3347.3,1257.4z"/>
    <path class="st10-6077b8b7839fc"
          d="M3461.6,1165.2c1.1-1.9,3.5-2.6,5.4-1.6c1.9,1.1,2.6,3.5,1.6,5.4c-1.1,1.9-3.5,2.6-5.4,1.6c0,0,0,0,0,0  C3461.3,1169.5,3460.6,1167.1,3461.6,1165.2z"/>
    <path class="st10-6077b8b7839fc"
          d="M3469.1,1069.4c1.4-2.5,4.5-3.4,7-2c2.5,1.4,3.4,4.5,2,7s-4.5,3.4-7,2c0,0,0,0,0,0  C3468.6,1075,3467.8,1071.9,3469.1,1069.4z"/>
    <path class="st10-6077b8b7839fc"
          d="M3454.9,1021.6c1.3-2.3,4.2-3.2,6.5-1.9s3.2,4.2,1.9,6.5s-4.2,3.2-6.5,1.9c0,0,0,0,0,0  C3454.4,1026.8,3453.6,1023.9,3454.9,1021.6z"/>
    <path class="st10-6077b8b7839fc"
          d="M3445.4,963.4c1.1-1.9,3.5-2.7,5.4-1.6s2.7,3.5,1.6,5.4c-1.1,1.9-3.5,2.7-5.4,1.6c0,0,0,0-0.1,0  C3445.1,967.7,3444.4,965.3,3445.4,963.4z"/>
    <path class="st10-6077b8b7839fc"
          d="M3506.1,848.9c1.1-2,3.6-2.7,5.6-1.6c2,1.1,2.7,3.6,1.6,5.6c-1.1,2-3.6,2.7-5.6,1.6  C3505.7,853.4,3505,850.9,3506.1,848.9C3506.1,848.9,3506.1,848.9,3506.1,848.9z"/>
    <path class="st10-6077b8b7839fc"
          d="M3657.8,1265.8c0-2.8,2.3-5.1,5.1-5.1s5.1,2.3,5.1,5.1c0,2.8-2.3,5.1-5.1,5.1c0,0,0,0,0,0  C3660.1,1271,3657.8,1268.7,3657.8,1265.8z"/>
    <path class="st10-6077b8b7839fc"
          d="M3077.7,1955.1c0-2.8,2.3-5.1,5.1-5.1c2.8,0,5.1,2.3,5.1,5.1c0,2.8-2.3,5.1-5.1,5.1l0,0  C3080,1960.3,3077.7,1958,3077.7,1955.1z"/>
    <path class="st10-6077b8b7839fc"
          d="M3539.1,1389.8c0-2.6,2.1-4.6,4.6-4.6s4.6,2.1,4.6,4.6c0,2.6-2.1,4.6-4.6,4.6c0,0,0,0,0,0  C3541.2,1394.4,3539.2,1392.3,3539.1,1389.8C3539.1,1389.8,3539.1,1389.8,3539.1,1389.8z"/>
    <path class="st10-6077b8b7839fc"
          d="M3601.7,418c0-2.6,2.1-4.6,4.6-4.6c2.6,0,4.6,2.1,4.6,4.6c0,2.6-2.1,4.6-4.6,4.6c0,0,0,0,0,0  C3603.8,422.6,3601.7,420.6,3601.7,418z"/>
    <circle class="st10-6077b8b7839fc" cx="3616.3" cy="1495.1" r="4.1"/>
    <circle class="st10-6077b8b7839fc" cx="3475.4" cy="367.7" r="4.1"/>
    <path class="st10-6077b8b7839fc"
          d="M3657.2,1584c0-2.7,2.1-4.8,4.8-4.8s4.8,2.1,4.8,4.8c0,2.7-2.1,4.8-4.8,4.8c0,0,0,0,0,0  C3659.4,1588.8,3657.2,1586.6,3657.2,1584C3657.2,1584,3657.2,1584,3657.2,1584z"/>
    <path class="st10-6077b8b7839fc"
          d="M3606.3,1646.3c0-2.4,2-4.4,4.4-4.4c2.4,0,4.4,2,4.4,4.4c0,2.4-2,4.4-4.4,4.4c0,0,0,0,0,0  C3608.3,1650.7,3606.3,1648.8,3606.3,1646.3C3606.3,1646.3,3606.3,1646.3,3606.3,1646.3z"/>
    <path class="st10-6077b8b7839fc"
          d="M3651.1,1670.8c0-2,1.6-3.6,3.6-3.6s3.6,1.6,3.6,3.6c0,2-1.6,3.6-3.6,3.6c0,0,0,0,0,0  C3652.7,1674.4,3651.1,1672.8,3651.1,1670.8z"/>
</svg>