<?xml version="1.0" standalone="no"?>
<!DOCTYPE svg PUBLIC "-//W3C//DTD SVG 20010904//EN"
 "http://www.w3.org/TR/2001/REC-SVG-20010904/DTD/svg10.dtd">
<svg version="1.0" xmlns="http://www.w3.org/2000/svg"
 width="500.000000pt" height="500.000000pt" viewBox="0 0 500.000000 500.000000"
 preserveAspectRatio="xMidYMid meet">

<g transform="translate(0.000000,500.000000) scale(0.100000,-0.100000)"
fill="white" stroke="none">
<path d="M1627 4223 c-4 -3 -7 -44 -7 -90 l0 -83 248 -1 c136 -1 461 -4 722
-9 441 -6 481 -9 555 -28 276 -75 439 -249 500 -537 20 -95 20 -314 -1 -413
-47 -227 -175 -392 -396 -507 -118 -62 -248 -185 -248 -235 0 -25 14 -45 78
-108 66 -67 100 -115 247 -357 355 -584 518 -802 686 -918 141 -96 387 -156
645 -157 l81 0 7 38 c3 20 6 54 6 74 0 33 -3 37 -32 43 -50 11 -156 67 -224
119 -142 107 -354 377 -659 841 -164 249 -345 539 -345 553 0 4 26 21 58 36
247 121 430 289 522 479 121 252 117 566 -12 807 -97 181 -264 314 -484 383
-115 37 -242 57 -423 67 -179 11 -1514 13 -1524 3z"/>
<path d="M1145 3690 c-287 -14 -416 -36 -532 -90 -121 -56 -182 -145 -281
-410 -28 -74 -58 -152 -66 -172 -24 -55 -21 -59 30 -56 l46 3 55 90 c88 145
153 201 282 245 70 23 229 37 303 26 l45 -7 -4 -92 c-27 -601 -142 -972 -425
-1367 -133 -186 -148 -216 -148 -295 0 -102 54 -192 142 -241 47 -26 63 -29
138 -29 75 0 91 4 139 30 89 49 147 136 194 295 62 205 89 421 167 1338 16
195 32 358 36 363 3 5 124 9 276 9 l271 0 -7 -97 c-4 -54 -27 -314 -51 -578
-55 -599 -69 -840 -54 -938 36 -235 170 -381 383 -418 300 -52 536 133 631
493 13 51 25 120 27 153 l3 60 -45 0 -45 0 -8 -55 c-10 -73 -49 -150 -97 -194
-105 -95 -306 -84 -386 21 -104 136 -115 336 -55 948 17 166 33 368 37 449 l7
148 296 -3 296 -4 0 182 c0 100 -4 185 -8 190 -11 10 -1382 13 -1592 3z"/>
<path d="M2496 2650 c-99 -39 -156 -121 -156 -225 0 -77 24 -129 83 -181 77
-68 165 -82 252 -40 205 97 186 387 -29 451 -64 19 -90 18 -150 -5z"/>
</g>
</svg>
