<svg id="svg" version="1.1" xmlns="http://www.w3.org/2000/svg" xmlns:xlink="http://www.w3.org/1999/xlink" width="400"
     height="400" viewBox="0, 0, 400,400">
    <g id="svgg">
        <path id="path0"
              d="M215.000 81.595 C 209.842 82.009,205.589 82.645,199.385 83.930 C 197.486 84.323,189.541 86.824,187.800 87.576 C 187.360 87.766,185.920 88.336,184.600 88.842 C 181.921 89.869,175.174 93.287,173.538 94.447 C 172.954 94.861,172.367 95.200,172.232 95.200 C 171.831 95.200,167.661 97.992,163.600 100.980 C 159.294 104.147,149.149 113.970,146.318 117.712 C 142.369 122.934,141.574 124.056,139.961 126.689 C 135.976 133.194,134.218 136.638,132.045 142.200 C 131.099 144.620,130.178 146.960,129.999 147.400 C 129.271 149.185,129.167 149.530,127.894 154.400 C 126.683 159.034,125.773 164.259,125.166 170.068 C 124.663 174.876,125.146 187.968,125.997 192.600 C 126.200 193.700,126.576 195.770,126.833 197.200 C 128.611 207.075,132.840 218.448,137.965 227.141 C 138.644 228.293,139.200 229.407,139.200 229.617 C 139.200 229.827,126.438 242.763,110.840 258.363 C 88.921 280.285,82.417 287.012,82.204 287.980 C 81.884 289.440,82.309 293.097,82.837 293.423 C 83.037 293.546,83.200 293.915,83.200 294.242 C 83.200 295.680,87.562 301.033,93.461 306.832 C 101.387 314.625,104.093 316.546,107.870 317.069 C 111.805 317.614,110.039 319.151,140.620 288.579 C 156.123 273.080,168.945 260.400,169.114 260.400 C 169.284 260.400,169.777 260.648,170.211 260.952 C 171.422 261.798,176.385 264.587,179.400 266.115 C 182.451 267.661,186.452 269.296,191.800 271.182 C 197.514 273.197,202.456 274.243,212.600 275.583 C 225.237 277.252,244.208 274.811,256.300 269.961 C 257.379 269.528,258.871 268.931,260.100 268.441 C 263.454 267.102,266.360 265.714,269.323 264.036 C 270.135 263.576,271.444 262.835,272.231 262.389 C 294.641 249.696,312.599 224.386,317.777 198.200 C 319.327 190.363,319.389 189.640,319.388 179.400 C 319.386 167.943,319.000 164.390,316.718 154.800 C 311.365 132.314,296.245 110.831,276.483 97.634 C 274.479 96.295,272.723 95.200,272.581 95.200 C 272.439 95.200,271.846 94.861,271.262 94.447 C 267.572 91.832,259.242 88.182,251.200 85.659 C 245.057 83.732,243.000 83.287,234.400 82.024 C 230.608 81.467,219.627 81.224,215.000 81.595 M235.421 109.999 C 236.510 110.247,238.210 110.630,239.200 110.850 C 248.291 112.873,258.672 117.816,265.800 123.514 C 307.666 156.985,298.014 221.756,248.200 241.625 C 244.349 243.161,243.961 243.271,236.200 245.028 C 231.565 246.077,215.639 246.077,211.000 245.029 C 209.240 244.631,207.080 244.154,206.200 243.969 C 203.836 243.472,201.497 242.701,197.800 241.201 C 187.380 236.974,176.366 228.811,170.275 220.800 C 169.355 219.590,168.498 218.510,168.371 218.400 C 167.088 217.289,160.533 205.684,159.899 203.400 C 159.776 202.960,159.233 201.340,158.690 199.800 C 157.198 195.565,156.646 193.345,155.613 187.433 C 155.078 184.370,155.078 170.830,155.613 167.767 C 156.646 161.855,157.198 159.635,158.690 155.400 C 159.233 153.860,159.776 152.240,159.899 151.800 C 160.746 148.749,166.372 139.201,169.915 134.800 C 179.356 123.075,193.574 113.908,206.600 111.145 C 207.700 110.912,209.410 110.538,210.400 110.313 C 215.303 109.203,231.053 109.005,235.421 109.999 M222.333 127.500 C 222.260 127.665,220.670 129.150,218.801 130.800 C 216.931 132.450,215.131 134.070,214.800 134.400 C 214.469 134.730,212.669 136.348,210.799 137.994 C 208.930 139.641,207.310 141.081,207.200 141.194 C 207.090 141.308,205.290 142.930,203.200 144.800 C 201.110 146.670,199.310 148.292,199.200 148.406 C 199.090 148.519,197.470 149.959,195.601 151.606 C 193.731 153.252,191.931 154.870,191.600 155.200 C 191.269 155.530,189.469 157.148,187.599 158.794 C 185.730 160.441,184.110 161.881,184.000 161.994 C 183.890 162.108,182.090 163.730,180.001 165.600 C 177.912 167.470,175.333 169.810,174.272 170.800 C 173.210 171.790,172.174 172.660,171.971 172.733 C 171.277 172.983,171.599 173.587,173.867 176.295 C 175.113 177.783,176.180 179.061,176.237 179.137 C 176.431 179.393,177.514 178.601,180.254 176.200 C 182.929 173.856,186.801 170.400,187.200 170.000 C 187.310 169.889,188.748 168.629,190.397 167.200 C 192.045 165.770,194.025 164.040,194.797 163.355 C 195.568 162.670,198.090 160.440,200.400 158.400 C 202.710 156.360,205.232 154.130,206.003 153.445 C 206.775 152.760,208.755 151.030,210.403 149.600 C 212.052 148.171,213.490 146.911,213.600 146.800 C 213.710 146.690,215.329 145.250,217.197 143.600 C 219.065 141.950,221.135 140.106,221.797 139.502 C 223.372 138.064,223.887 138.116,225.800 139.905 C 226.680 140.727,228.930 142.751,230.800 144.400 C 232.670 146.050,234.290 147.490,234.400 147.600 C 234.510 147.711,235.948 148.971,237.597 150.400 C 239.245 151.830,241.225 153.560,241.997 154.245 C 242.768 154.930,245.290 157.160,247.600 159.200 C 249.910 161.240,252.432 163.470,253.203 164.155 C 253.975 164.840,255.955 166.570,257.603 168.000 C 259.252 169.429,260.690 170.689,260.800 170.800 C 260.910 170.910,262.529 172.350,264.397 174.000 C 266.265 175.650,268.335 177.494,268.997 178.098 C 270.564 179.529,270.357 179.606,273.165 176.542 C 275.984 173.465,276.039 173.236,274.300 171.791 C 273.585 171.198,272.190 169.967,271.199 169.056 C 270.208 168.145,267.690 165.870,265.602 164.000 C 263.514 162.130,261.535 160.343,261.203 160.029 C 260.706 159.559,260.579 157.813,260.479 150.129 L 260.359 140.800 253.779 140.800 L 247.200 140.800 247.200 144.000 C 247.200 145.760,247.081 147.200,246.934 147.200 C 246.727 147.200,241.716 142.959,240.800 142.008 C 240.690 141.893,238.890 140.270,236.800 138.400 C 234.710 136.530,232.910 134.910,232.800 134.800 C 232.690 134.690,231.070 133.250,229.200 131.600 C 227.330 129.950,225.451 128.285,225.025 127.900 C 224.242 127.193,222.579 126.946,222.333 127.500 M218.000 149.666 C 215.250 152.112,211.743 155.214,210.208 156.557 C 207.473 158.949,203.597 162.403,203.200 162.800 C 203.090 162.911,201.650 164.170,200.000 165.600 C 198.350 167.030,196.910 168.289,196.800 168.400 C 196.690 168.510,195.070 169.945,193.200 171.588 C 191.330 173.232,189.125 175.243,188.300 176.057 L 186.800 177.537 186.800 200.543 C 186.800 214.522,186.953 223.950,187.190 224.574 L 187.580 225.600 199.790 225.600 L 212.000 225.600 212.000 215.010 L 212.000 204.421 213.180 203.810 C 215.245 202.742,232.742 202.925,234.146 204.029 L 235.200 204.858 235.200 215.229 L 235.200 225.600 247.151 225.600 C 257.697 225.600,259.165 225.524,259.642 224.950 C 260.077 224.425,260.211 219.770,260.334 200.850 L 260.486 177.400 258.543 175.588 C 257.474 174.591,252.190 169.916,246.800 165.198 C 241.410 160.480,236.910 156.525,236.800 156.410 C 236.690 156.294,235.250 155.030,233.600 153.600 C 231.950 152.170,230.510 150.906,230.400 150.790 C 229.158 149.482,223.858 145.202,223.487 145.209 C 223.219 145.213,220.750 147.219,218.000 149.666 "
              stroke="none" fill="#000000" fill-rule="evenodd"></path>
    </g>
</svg>